<svg width="211" height="65" viewBox="0 0 211 65" fill="none" xmlns="http://www.w3.org/2000/svg">
<path d="M62.4845 38.7123L59.6357 27.3574C59.4838 26.631 59.2559 25.6752 59.2559 25.3694C59.2559 24.7194 59.6357 24.5665 60.8132 24.3371C61.7628 24.1459 62.2566 24.0312 62.4845 24.0312C63.0922 24.0312 63.2441 24.3753 63.4341 25.3311C64.3837 29.5749 65.0674 32.8628 65.7131 36.7242C65.7131 36.8389 65.7891 36.8389 65.865 36.8389C65.941 36.8389 66.017 36.8389 66.017 36.7242C66.7386 33.1686 67.4983 29.3455 68.296 26.1722C68.7518 24.1842 68.7898 24.1842 71.1448 24.1842C73.4997 24.1842 73.5377 24.1842 73.9556 26.1722C74.9431 30.3013 75.5129 33.054 76.2726 36.7242C76.3105 36.8389 76.3485 36.8389 76.4245 36.8389C76.5005 36.8389 76.5384 36.8389 76.5764 36.7242C77.1842 33.0157 78.0198 29.1161 78.8175 25.4458C79.0074 24.5283 79.1213 24.0312 79.7671 24.0312C80.1089 24.0312 80.6407 24.1459 81.4383 24.2989C82.7678 24.5665 82.9577 24.7959 82.9577 25.2929C82.9577 25.5605 82.8058 26.4399 82.6158 27.3192L79.7671 38.7123C79.2353 40.8532 79.2353 40.8532 76.4245 40.8532C73.6897 40.8532 73.6897 40.8532 73.2718 38.7123L71.2587 29.5366C71.2587 29.4602 71.1827 29.4219 71.1068 29.4219C71.0308 29.4219 70.9928 29.4602 70.9548 29.5366L68.8657 38.7123C68.4479 40.8532 68.4479 40.8532 65.7131 40.8532C62.9783 40.815 62.9783 40.815 62.4845 38.7123Z" fill="black"/>
<path d="M86.4531 40.8522C85.2757 40.7375 85.0098 40.7375 85.0098 39.8581C85.0098 39.6287 85.0478 39.3229 85.0478 38.9023C85.1237 37.3731 85.1617 37.0672 85.9214 37.0672C86.3012 37.0672 87.2508 37.1437 88.4283 37.1437C90.4414 37.1437 92.7584 36.4937 92.7584 34.7733C92.7584 33.9322 92.1507 33.0911 90.8972 33.0911C90.2895 33.0911 89.8717 33.2058 89.3779 33.2058C88.9981 33.2058 88.7702 33.0911 88.3144 32.3647C88.0105 31.8677 87.8206 31.5618 87.8206 31.2942C87.8206 30.8737 88.1244 30.606 88.6562 30.0326L90.8593 27.5857V27.5475H87.0609C85.0857 27.5475 85.0857 27.5475 85.0857 25.6741C85.0857 23.8008 85.0857 23.8008 87.0229 23.8008H93.1383C94.9995 23.8008 94.9235 23.8008 95.4173 25.1007C95.6452 25.7888 95.8351 26.2476 95.8351 26.6682C95.8351 26.974 95.7212 27.2416 95.2654 27.6622L92.7964 30.1473C95.1134 30.4149 96.6328 32.2118 96.6328 34.6968C96.6328 38.8259 92.6825 40.8522 88.2004 40.8522C87.8585 40.9286 87.1369 40.9286 86.4531 40.8522Z" fill="black"/>
<path d="M100.315 39.4371C99.7837 39.0547 99.5938 38.6724 99.5938 37.9078V20.5888C99.5938 18.5625 99.5938 18.5625 101.645 18.5625C103.696 18.5625 103.696 18.5625 103.696 20.5888V24.6031C104.608 24.1826 105.975 23.8767 107.228 23.8767C110.913 23.8767 113.572 26.4765 113.876 30.185C113.99 31.4084 113.99 33.5494 113.876 34.7728C113.572 38.4813 110.913 41.081 106.773 41.081C103.734 41.1193 101.303 40.1252 100.315 39.4371ZM106.621 37.0667C108.634 37.0667 109.659 35.8433 109.811 34.0846C109.887 33.167 109.887 32.0583 109.811 30.9878C109.659 29.2292 108.634 28.0057 106.621 28.0057C105.595 28.0057 104.38 28.3116 103.734 28.7704V36.3403C104.38 36.7608 105.595 37.0667 106.621 37.0667Z" fill="black"/>
<path d="M117.028 39.3206C116.572 38.9766 116.23 38.7089 116.23 38.4031C116.23 38.0972 116.42 37.8296 116.99 36.9503C117.598 35.9945 117.826 35.8033 118.13 35.8033C118.434 35.8033 118.661 35.9945 119.079 36.2621C120.219 36.9885 121.168 37.4091 122.916 37.4091C124.511 37.4091 125.195 36.7591 125.195 35.918C125.195 35.2681 124.739 34.7711 123.447 34.4652L121.13 33.93C118.737 33.3565 116.762 31.8654 116.762 29.1128C116.762 25.8248 119.535 23.875 122.916 23.875C124.967 23.875 126.676 24.4867 127.967 25.4043C128.461 25.7484 128.613 26.016 128.613 26.2454C128.613 26.5895 128.461 26.8953 127.853 27.7746C127.246 28.6922 126.942 28.9598 126.638 28.9598C126.372 28.9598 126.144 28.7687 125.612 28.4628C125.043 28.1187 124.017 27.6217 122.878 27.6217C121.358 27.6217 120.713 28.1952 120.713 28.9981C120.713 29.648 121.168 30.0685 122.536 30.3744L124.587 30.8332C127.778 31.5596 129.221 33.1271 129.221 35.7269C129.221 39.053 126.41 41.0411 122.916 41.0411C120.333 41.1175 118.396 40.3147 117.028 39.3206Z" fill="black"/>
<path d="M132.033 35.3481V22.6552C132.033 20.6289 132.033 20.6289 134.084 20.6289C136.135 20.6289 136.135 20.6289 136.135 22.6552V24.2227H139.858C141.757 24.2227 141.757 24.2227 141.757 26.1343C141.757 28.0459 141.757 28.0459 139.858 28.0459H136.135V34.9276C136.135 36.5333 136.705 37.2215 138.111 37.2215C138.794 37.2215 139.516 37.0303 140.048 36.8009C140.504 36.648 140.807 36.5333 141.035 36.5333C141.491 36.5333 141.681 36.8392 142.175 38.0244C142.555 38.9802 142.593 39.1713 142.593 39.3625C142.593 39.783 142.289 39.9742 141.605 40.28C140.428 40.8153 139.06 41.0829 137.883 41.0829C134.426 41.1211 132.033 39.1713 132.033 35.3481Z" fill="black"/>
<path d="M144.643 38.7862V29.5724C144.643 26.1315 146.732 23.9141 149.998 23.9141C151.1 23.9141 152.277 24.067 153.151 24.3346C153.987 24.6022 154.518 24.7169 154.518 25.3286C154.518 25.6345 154.442 25.9403 154.177 26.8961C153.873 28.0431 153.683 28.3872 153.189 28.3872C152.923 28.3872 152.619 28.3107 152.239 28.2343C151.784 28.1196 151.062 28.0049 150.53 28.0049C149.353 28.0049 148.821 28.5783 148.821 29.8018V38.8245C148.821 40.8507 148.821 40.8507 146.77 40.8507C144.643 40.8125 144.643 40.8125 144.643 38.7862Z" fill="black"/>
<path d="M155.697 34.7337C155.621 33.5867 155.583 31.6369 155.697 30.5664C156.039 26.705 158.812 23.9141 163.066 23.9141C167.396 23.9141 169.903 26.705 169.903 30.9105V31.7516C169.903 33.6249 169.523 33.8926 167.89 33.8926H159.571V34.3513C159.647 36.1482 161.091 37.3717 163.18 37.3717C164.623 37.3717 165.535 37.104 166.37 36.7217C166.902 36.4923 167.282 36.3012 167.624 36.3012C168.004 36.3012 168.232 36.607 168.687 37.6775C169.029 38.4804 169.105 38.7862 169.105 39.0156C169.105 39.3597 168.915 39.5891 168.042 39.9714C166.75 40.5449 165.003 41.0801 163.142 41.0801C158.888 41.1184 156.001 38.4804 155.697 34.7337ZM166.142 31.0252C166.294 28.7695 164.965 27.4314 162.876 27.4314C160.863 27.4314 159.647 28.846 159.571 30.9487V31.0634H166.142V31.0252Z" fill="black"/>
<path d="M171.801 35.7659C171.801 33.1279 173.776 30.7193 177.954 30.7193C179.17 30.7193 180.309 30.8722 181.525 31.2163V30.0311C181.525 28.5019 180.689 27.6608 178.372 27.6608C177.346 27.6608 176.131 28.0049 175.257 28.3489C174.801 28.5401 174.46 28.6166 174.232 28.6166C173.814 28.6166 173.624 28.3489 173.168 27.2402C172.864 26.5138 172.788 26.0933 172.788 25.8257C172.788 25.4051 172.978 25.2139 174.004 24.8316C175.295 24.2964 176.815 23.9141 178.638 23.9141C183.006 23.9141 185.475 25.8639 185.475 30.2223V37.9069C185.475 38.6715 185.285 39.0538 184.753 39.4362C183.766 40.1243 181.335 41.1566 178.22 41.1566C174.004 41.1184 171.801 38.6715 171.801 35.7659ZM178.562 37.754C179.663 37.754 180.765 37.4863 181.601 37.0658V34.0455C180.537 33.7014 179.587 33.5485 178.752 33.5485C176.701 33.5485 175.751 34.466 175.751 35.7277C175.751 36.9893 176.891 37.754 178.562 37.754Z" fill="black"/>
<path d="M189.008 38.7854V28.1952C189.008 26.4365 189.084 26.016 190.071 25.4043C191.135 24.7543 193.186 23.875 195.465 23.875C197.516 23.875 198.96 24.4485 200.099 25.5954C201.504 24.6014 203.138 23.875 205.113 23.875C209.177 23.875 211 26.3218 211 30.0685V38.7472C211 40.7734 211 40.7734 208.949 40.7734C206.898 40.7734 206.898 40.7734 206.898 38.7472V30.7185C206.898 28.9216 206.176 27.9658 204.467 27.9658C203.518 27.9658 202.644 28.3863 202.036 28.8834C202.112 29.5715 202.112 30.0303 202.112 30.8714V38.7854C202.112 40.8117 202.112 40.8117 200.023 40.8117C197.972 40.8117 197.972 40.8117 197.972 38.7854V30.642C197.972 28.7687 197.136 27.9276 195.465 27.9276C194.591 27.9276 193.642 28.3863 193.148 28.6922V38.7472C193.148 40.7734 193.148 40.7734 191.059 40.7734C189.008 40.8117 189.008 40.8117 189.008 38.7854Z" fill="black"/>
<path d="M19.6389 15.0459C19.6389 15.1989 19.6389 15.3518 19.6768 15.5047C19.6768 15.5812 19.6768 15.6577 19.6768 15.6959C19.6768 15.8488 19.7148 16.0017 19.7148 16.1547C19.7148 16.1929 19.7148 16.2694 19.7528 16.3076C19.7908 16.537 19.8288 16.7281 19.8668 16.9575C19.9047 17.1487 19.9427 17.3399 19.9807 17.531L24.9186 25.1774L20.9303 7.85837C20.0947 9.80819 19.6389 11.9492 19.6389 14.1666C19.6389 14.396 19.6389 14.5872 19.6389 14.8166C19.6389 14.9313 19.6389 14.9695 19.6389 15.0459Z" fill="#855EFF"/>
<path d="M35.8199 17.6457C35.8579 17.4163 35.8959 17.1869 35.9339 16.9958C35.9719 16.7664 36.0098 16.5752 36.0478 16.3458C36.0478 16.3076 36.0478 16.2311 36.0478 16.1929C36.0858 16.04 36.0858 15.887 36.0858 15.6959C36.0858 15.6194 36.0858 15.543 36.0858 15.5047C36.0858 15.3518 36.1238 15.1989 36.1238 15.0459C36.1238 14.9695 36.1238 14.9313 36.1238 14.8548C36.1238 14.6254 36.1238 14.4342 36.1238 14.2048C36.1238 11.9492 35.668 9.80819 34.8323 7.8966L30.882 25.2538L35.8199 17.6457Z" fill="#855EFF"/>
<path d="M19.1831 18.181L19.1451 18.1427C18.9931 17.9898 18.8412 17.8751 18.6513 17.7222C18.4994 17.5692 18.3094 17.4546 18.1575 17.3016C18.1195 17.2634 18.0815 17.2252 18.0435 17.2252C17.9296 17.1105 17.7777 17.034 17.6637 16.9193C17.6257 16.8811 17.5498 16.8428 17.5118 16.8046C17.3978 16.7281 17.2459 16.6135 17.1319 16.537C17.094 16.4988 17.018 16.4605 16.98 16.4223C16.7901 16.3076 16.6002 16.1929 16.4102 16.0782C14.4731 14.9695 12.422 14.2813 10.3329 14.0519L23.2853 26.2096L19.1831 18.181Z" fill="#855EFF"/>
<path d="M8.09181 30.5298C8.28173 30.6445 8.47165 30.7592 8.66157 30.8357C8.73754 30.8739 8.77552 30.9121 8.85149 30.9121C9.00342 30.9886 9.11737 31.0651 9.26931 31.1033C9.34528 31.1415 9.38326 31.1798 9.45923 31.1798C9.61116 31.2562 9.7631 31.2945 9.91503 31.3709C9.95302 31.4092 10.029 31.4092 10.067 31.4474C10.2569 31.5238 10.4848 31.6003 10.6747 31.6768C10.8646 31.7532 11.0545 31.8297 11.2824 31.8679C11.2824 31.8679 11.2824 31.8679 11.3204 31.8679L20.3226 31.3709L3.30587 26.2096C4.55933 27.9301 6.15464 29.3829 8.09181 30.5298Z" fill="#855EFF"/>
<path d="M20.2466 33.3972L11.2445 32.9002C11.0545 32.9767 10.8646 33.0149 10.6747 33.0913C10.4088 33.206 10.2189 33.2825 10.029 33.359C9.991 33.3972 9.91503 33.3972 9.87705 33.4354C9.72511 33.5119 9.57318 33.5501 9.42124 33.6266C9.34528 33.6648 9.30729 33.7031 9.23132 33.7031C9.07939 33.7795 8.96544 33.8178 8.8135 33.8942C8.73754 33.9324 8.69955 33.9707 8.62358 33.9707C8.43367 34.0854 8.24375 34.1618 8.05383 34.2765C6.11666 35.3853 4.52134 36.8763 3.26788 38.5585L20.2466 33.3972Z" fill="#855EFF"/>
<path d="M10.2949 50.7544C12.384 50.525 14.4351 49.8369 16.3723 48.7282C16.5622 48.6135 16.7521 48.4988 16.942 48.3841C16.98 48.3458 17.056 48.3076 17.094 48.2694C17.2079 48.1929 17.3598 48.1164 17.4738 48.0017C17.5118 47.9635 17.5877 47.9253 17.6257 47.887C17.7397 47.8106 17.8916 47.6959 18.0056 47.5812C18.0435 47.543 18.0815 47.5047 18.1195 47.5047C18.4614 47.2371 18.8032 46.9695 19.1071 46.6636L23.1713 38.5967L10.2949 50.7544Z" fill="#855EFF"/>
<path d="M36.1618 49.7986C36.1618 49.6457 36.1618 49.4928 36.1238 49.3399C36.1238 49.2634 36.1238 49.1869 36.1238 49.1487C36.1238 48.9958 36.0858 48.8428 36.0858 48.6517C36.0858 48.6135 36.0858 48.537 36.0478 48.4988C36.0098 48.2694 35.9719 48.0782 35.9339 47.8488C35.8959 47.6577 35.8579 47.4283 35.8199 47.2371L30.92 39.629L34.9083 56.9862C35.744 55.0364 36.1998 52.8954 36.1998 50.678C36.1998 50.4486 36.1998 50.2574 36.1998 50.028C36.1618 49.9133 36.1618 49.8369 36.1618 49.7986Z" fill="#855EFF"/>
<path d="M19.9807 47.1989C19.9047 47.6194 19.8288 48.04 19.7528 48.4988C19.7528 48.537 19.7528 48.6135 19.7528 48.6517C19.7148 48.8046 19.7148 48.9575 19.7148 49.1487C19.7148 49.2252 19.7148 49.3016 19.7148 49.3399C19.7148 49.4928 19.6768 49.6457 19.6768 49.7986C19.6768 49.8751 19.6768 49.9133 19.6768 49.9898C19.6768 50.2192 19.6768 50.4103 19.6768 50.6397C19.6768 52.8954 20.1326 55.0364 20.9683 56.948L24.9566 39.5908L19.9807 47.1989Z" fill="#855EFF"/>
<path d="M47.7088 34.3148C47.5189 34.2001 47.329 34.0854 47.1391 34.0089C47.0631 33.9707 47.0251 33.9324 46.9491 33.9324C46.7972 33.856 46.6833 33.7795 46.5313 33.7413C46.4554 33.7031 46.4174 33.6648 46.3414 33.6648C46.1895 33.5884 46.0375 33.5501 45.8856 33.4737C45.8476 33.4354 45.7717 33.4354 45.7337 33.3972C45.5437 33.3207 45.3158 33.2443 45.1259 33.1678C44.936 33.0913 44.7461 33.0149 44.5562 32.9767L35.554 33.4737L52.4948 38.6732C51.2413 36.9145 49.646 35.4235 47.7088 34.3148Z" fill="#855EFF"/>
<path d="M36.6556 46.7019C36.8075 46.8548 36.9974 47.0077 37.1494 47.1224C37.3013 47.2753 37.4912 47.39 37.6431 47.543C37.6811 47.5812 37.7191 47.6194 37.7571 47.6194C37.871 47.7341 38.023 47.8106 38.1369 47.9253C38.1749 47.9635 38.2509 48.0017 38.2889 48.04C38.4028 48.1164 38.5547 48.2311 38.6687 48.3076C38.7067 48.3458 38.7827 48.3841 38.8206 48.4223C39.0106 48.537 39.2005 48.6517 39.3904 48.7664C41.3276 49.8751 43.3787 50.5633 45.4678 50.7927L32.5913 38.635L36.6556 46.7019Z" fill="#855EFF"/>
<path d="M45.5437 14.0519C43.4546 14.2813 41.4035 14.9695 39.4664 16.0782C39.2764 16.1929 39.0865 16.3076 38.8966 16.4223C38.8586 16.4605 38.7826 16.4988 38.7447 16.537C38.6307 16.6135 38.4788 16.6899 38.3648 16.8046C38.2889 16.8428 38.2509 16.8811 38.1749 16.9193C38.061 16.9958 37.909 17.1105 37.7951 17.1869C37.7571 17.2252 37.7191 17.2634 37.6811 17.2634C37.5292 17.3781 37.3393 17.531 37.1873 17.6839C37.0354 17.8369 36.8835 17.9516 36.7315 18.1045L32.5913 26.2479L45.5437 14.0519Z" fill="#855EFF"/>
<path d="M55.6474 16.8046L35.4021 29.3064V28.083L34.3386 27.4713L55.2296 16.0782C52.6847 14.6254 49.7599 13.899 46.8352 14.0137L34.3006 27.433L32.5153 26.4008L32.4394 26.3626L31.9836 26.0949L31.3378 25.7126L30.882 25.445L30.8441 25.4068L29.0208 24.3745L34.3386 6.71142C32.9332 4.11166 30.882 1.93245 28.3371 0.441406L28.9449 24.3363L27.8813 23.7246L26.8178 24.3363L27.4255 0.441406C24.9186 1.93245 22.8675 4.11166 21.4621 6.71142L26.8178 24.3363L25.0325 25.3685L24.9566 25.4068L24.5008 25.6744L23.8551 26.0567L23.3992 26.3243L23.3233 26.4008L21.5001 27.4713L9.00342 13.9755C6.07868 13.8608 3.15393 14.5872 0.609023 16.04L21.4621 27.4713L20.3985 28.083V29.3064L0.153218 16.7664C0.191202 19.7485 1.02684 22.6541 2.58418 25.1774L20.3985 29.3446V35.5382L2.54619 39.7054C0.98886 42.2287 0.153218 45.1344 0.115234 48.0782L20.3606 35.5764V36.7998L21.4241 37.4115L0.609023 48.8046C3.15393 50.2574 6.07868 50.9838 9.00342 50.8691L21.5001 37.4115L23.3233 38.4438L23.3613 38.482L23.8171 38.7497L24.4628 39.132L24.9186 39.3996L24.9566 39.4378L26.7798 40.4701L21.4621 58.1332C22.8295 60.7329 24.9186 62.9121 27.4635 64.4414L26.8558 40.5465L27.9193 41.1583L28.9829 40.5465L28.3751 64.4414C30.92 62.9504 32.9711 60.7712 34.3765 58.1332L29.0208 40.5083L30.8441 39.4761L30.882 39.4378L31.3378 39.1702L31.9836 38.7879L32.4394 38.5203L32.5153 38.482L34.3386 37.4498L46.8352 50.9074C49.7979 51.0221 52.6847 50.2956 55.2676 48.8428L34.3386 37.3733L35.4021 36.7616V35.5382L55.6474 48.0017C55.6094 45.0579 54.7738 42.1523 53.2165 39.6672L35.3641 35.5V29.3064L53.2165 25.1391C54.7738 22.6541 55.6094 19.7867 55.6474 16.8046Z" fill="#855EFF"/>
<path d="M35.554 31.4474L44.5562 31.9444C44.5562 31.9444 44.5562 31.9444 44.5942 31.9444C44.7841 31.8679 44.974 31.8297 45.2019 31.7532C45.3918 31.6768 45.6197 31.6003 45.8096 31.5238C45.8476 31.4856 45.9236 31.4856 45.9616 31.4474C46.1135 31.3709 46.2654 31.3327 46.4174 31.2562C46.4933 31.218 46.5313 31.1798 46.6073 31.1798C46.7592 31.1033 46.8732 31.0268 47.0251 30.9886C47.1011 30.9504 47.1391 30.9121 47.215 30.9121C47.405 30.7974 47.5949 30.721 47.7848 30.6063C49.722 29.4976 51.3173 28.0065 52.5707 26.3243L35.554 31.4474Z" fill="#855EFF"/>
</svg>
