<svg width="212" height="65" viewBox="0 0 212 65" fill="none" xmlns="http://www.w3.org/2000/svg">
<path d="M62.9259 38.7123L60.0771 27.3574C59.9252 26.631 59.6973 25.6752 59.6973 25.3694C59.6973 24.7194 60.0771 24.5665 61.2546 24.3371C62.2042 24.1459 62.698 24.0312 62.9259 24.0312C63.5336 24.0312 63.6856 24.3753 63.8755 25.3311C64.8251 29.5749 65.5088 32.8628 66.1545 36.7242C66.1545 36.8389 66.2305 36.8389 66.3064 36.8389C66.3824 36.8389 66.4584 36.8389 66.4584 36.7242C67.1801 33.1686 67.9397 29.3455 68.7374 26.1722C69.1932 24.1842 69.2312 24.1842 71.5862 24.1842C73.9411 24.1842 73.9791 24.1842 74.397 26.1722C75.3845 30.3013 75.9543 33.054 76.714 36.7242C76.7519 36.8389 76.7899 36.8389 76.8659 36.8389C76.9419 36.8389 76.9798 36.8389 77.0178 36.7242C77.6256 33.0157 78.4612 29.1161 79.2589 25.4458C79.4488 24.5283 79.5627 24.0312 80.2085 24.0312C80.5503 24.0312 81.0821 24.1459 81.8797 24.2989C83.2092 24.5665 83.3991 24.7959 83.3991 25.2929C83.3991 25.5605 83.2472 26.4399 83.0572 27.3192L80.2085 38.7123C79.6767 40.8532 79.6767 40.8532 76.8659 40.8532C74.1311 40.8532 74.1311 40.8532 73.7132 38.7123L71.7001 29.5366C71.7001 29.4602 71.6241 29.4219 71.5482 29.4219C71.4722 29.4219 71.4342 29.4602 71.3962 29.5366L69.3071 38.7123C68.8893 40.8532 68.8893 40.8532 66.1545 40.8532C63.4197 40.815 63.4197 40.815 62.9259 38.7123Z" fill="white"/>
<path d="M86.8946 40.8522C85.7171 40.7375 85.4512 40.7375 85.4512 39.8581C85.4512 39.6287 85.4892 39.3229 85.4892 38.9023C85.5651 37.3731 85.6031 37.0672 86.3628 37.0672C86.7426 37.0672 87.6922 37.1437 88.8697 37.1437C90.8828 37.1437 93.1999 36.4937 93.1999 34.7733C93.1999 33.9322 92.5921 33.0911 91.3386 33.0911C90.7309 33.0911 90.3131 33.2058 89.8193 33.2058C89.4395 33.2058 89.2116 33.0911 88.7558 32.3647C88.4519 31.8677 88.262 31.5618 88.262 31.2942C88.262 30.8737 88.5658 30.606 89.0976 30.0326L91.3007 27.5857V27.5475H87.5023C85.5271 27.5475 85.5271 27.5475 85.5271 25.6741C85.5271 23.8008 85.5271 23.8008 87.4643 23.8008H93.5797C95.4409 23.8008 95.3649 23.8008 95.8587 25.1007C96.0866 25.7888 96.2765 26.2476 96.2765 26.6682C96.2765 26.974 96.1626 27.2416 95.7068 27.6622L93.2378 30.1473C95.5548 30.4149 97.0742 32.2118 97.0742 34.6968C97.0742 38.8259 93.1239 40.8522 88.6418 40.8522C88.3 40.9286 87.5783 40.9286 86.8946 40.8522Z" fill="white"/>
<path d="M100.757 39.4371C100.225 39.0547 100.035 38.6724 100.035 37.9078V20.5888C100.035 18.5625 100.035 18.5625 102.086 18.5625C104.137 18.5625 104.137 18.5625 104.137 20.5888V24.6031C105.049 24.1826 106.416 23.8767 107.67 23.8767C111.354 23.8767 114.013 26.4765 114.317 30.185C114.431 31.4084 114.431 33.5494 114.317 34.7728C114.013 38.4813 111.354 41.081 107.214 41.081C104.175 41.1193 101.744 40.1252 100.757 39.4371ZM107.062 37.0667C109.075 37.0667 110.101 35.8433 110.253 34.0846C110.329 33.167 110.329 32.0583 110.253 30.9878C110.101 29.2292 109.075 28.0057 107.062 28.0057C106.037 28.0057 104.821 28.3116 104.175 28.7704V36.3403C104.821 36.7608 106.037 37.0667 107.062 37.0667Z" fill="white"/>
<path d="M117.47 39.3206C117.014 38.9766 116.672 38.7089 116.672 38.4031C116.672 38.0972 116.862 37.8296 117.432 36.9503C118.039 35.9945 118.267 35.8033 118.571 35.8033C118.875 35.8033 119.103 35.9945 119.521 36.2621C120.66 36.9885 121.61 37.4091 123.357 37.4091C124.952 37.4091 125.636 36.7591 125.636 35.918C125.636 35.2681 125.18 34.7711 123.889 34.4652L121.572 33.93C119.179 33.3565 117.204 31.8654 117.204 29.1128C117.204 25.8248 119.976 23.875 123.357 23.875C125.408 23.875 127.117 24.4867 128.409 25.4043C128.903 25.7484 129.055 26.016 129.055 26.2454C129.055 26.5895 128.903 26.8953 128.295 27.7746C127.687 28.6922 127.383 28.9598 127.079 28.9598C126.814 28.9598 126.586 28.7687 126.054 28.4628C125.484 28.1187 124.459 27.6217 123.319 27.6217C121.8 27.6217 121.154 28.1952 121.154 28.9981C121.154 29.648 121.61 30.0685 122.977 30.3744L125.028 30.8332C128.219 31.5596 129.662 33.1271 129.662 35.7269C129.662 39.053 126.852 41.0411 123.357 41.0411C120.774 41.1175 118.837 40.3147 117.47 39.3206Z" fill="white"/>
<path d="M132.475 35.3481V22.6552C132.475 20.6289 132.475 20.6289 134.526 20.6289C136.577 20.6289 136.577 20.6289 136.577 22.6552V24.2227H140.299C142.198 24.2227 142.198 24.2227 142.198 26.1343C142.198 28.0459 142.198 28.0459 140.299 28.0459H136.577V34.9276C136.577 36.5333 137.147 37.2215 138.552 37.2215C139.236 37.2215 139.957 37.0303 140.489 36.8009C140.945 36.648 141.249 36.5333 141.477 36.5333C141.933 36.5333 142.122 36.8392 142.616 38.0244C142.996 38.9802 143.034 39.1713 143.034 39.3625C143.034 39.783 142.73 39.9742 142.046 40.28C140.869 40.8153 139.502 41.0829 138.324 41.0829C134.868 41.1211 132.475 39.1713 132.475 35.3481Z" fill="white"/>
<path d="M145.084 38.7862V29.5724C145.084 26.1315 147.173 23.9141 150.44 23.9141C151.541 23.9141 152.719 24.067 153.592 24.3346C154.428 24.6022 154.96 24.7169 154.96 25.3286C154.96 25.6345 154.884 25.9403 154.618 26.8961C154.314 28.0431 154.124 28.3872 153.63 28.3872C153.364 28.3872 153.061 28.3107 152.681 28.2343C152.225 28.1196 151.503 28.0049 150.971 28.0049C149.794 28.0049 149.262 28.5783 149.262 29.8018V38.8245C149.262 40.8507 149.262 40.8507 147.211 40.8507C145.084 40.8125 145.084 40.8125 145.084 38.7862Z" fill="white"/>
<path d="M156.138 34.7337C156.062 33.5867 156.024 31.6369 156.138 30.5664C156.48 26.705 159.253 23.9141 163.507 23.9141C167.837 23.9141 170.344 26.705 170.344 30.9105V31.7516C170.344 33.6249 169.964 33.8926 168.331 33.8926H160.013V34.3513C160.089 36.1482 161.532 37.3717 163.621 37.3717C165.064 37.3717 165.976 37.104 166.812 36.7217C167.344 36.4923 167.723 36.3012 168.065 36.3012C168.445 36.3012 168.673 36.607 169.129 37.6775C169.471 38.4804 169.547 38.7862 169.547 39.0156C169.547 39.3597 169.357 39.5891 168.483 39.9714C167.192 40.5449 165.444 41.0801 163.583 41.0801C159.329 41.1184 156.442 38.4804 156.138 34.7337ZM166.584 31.0252C166.736 28.7695 165.406 27.4314 163.317 27.4314C161.304 27.4314 160.089 28.846 160.013 30.9487V31.0634H166.584V31.0252Z" fill="white"/>
<path d="M172.242 35.7659C172.242 33.1279 174.217 30.7193 178.396 30.7193C179.611 30.7193 180.751 30.8722 181.966 31.2163V30.0311C181.966 28.5019 181.13 27.6608 178.813 27.6608C177.788 27.6608 176.572 28.0049 175.699 28.3489C175.243 28.5401 174.901 28.6166 174.673 28.6166C174.255 28.6166 174.065 28.3489 173.61 27.2402C173.306 26.5138 173.23 26.0933 173.23 25.8257C173.23 25.4051 173.42 25.2139 174.445 24.8316C175.737 24.2964 177.256 23.9141 179.079 23.9141C183.447 23.9141 185.916 25.8639 185.916 30.2223V37.9069C185.916 38.6715 185.726 39.0538 185.195 39.4362C184.207 40.1243 181.776 41.1566 178.661 41.1566C174.445 41.1184 172.242 38.6715 172.242 35.7659ZM179.003 37.754C180.105 37.754 181.206 37.4863 182.042 37.0658V34.0455C180.978 33.7014 180.029 33.5485 179.193 33.5485C177.142 33.5485 176.192 34.466 176.192 35.7277C176.192 36.9893 177.332 37.754 179.003 37.754Z" fill="white"/>
<path d="M189.449 38.7854V28.1952C189.449 26.4365 189.525 26.016 190.513 25.4043C191.576 24.7543 193.627 23.875 195.906 23.875C197.958 23.875 199.401 24.4485 200.54 25.5954C201.946 24.6014 203.579 23.875 205.554 23.875C209.619 23.875 211.442 26.3218 211.442 30.0685V38.7472C211.442 40.7734 211.442 40.7734 209.391 40.7734C207.34 40.7734 207.34 40.7734 207.34 38.7472V30.7185C207.34 28.9216 206.618 27.9658 204.909 27.9658C203.959 27.9658 203.085 28.3863 202.478 28.8834C202.554 29.5715 202.554 30.0303 202.554 30.8714V38.7854C202.554 40.8117 202.554 40.8117 200.464 40.8117C198.413 40.8117 198.413 40.8117 198.413 38.7854V30.642C198.413 28.7687 197.578 27.9276 195.906 27.9276C195.033 27.9276 194.083 28.3863 193.589 28.6922V38.7472C193.589 40.7734 193.589 40.7734 191.5 40.7734C189.449 40.8117 189.449 40.8117 189.449 38.7854Z" fill="white"/>
<path d="M20.0803 15.0459C20.0803 15.1989 20.0803 15.3518 20.1182 15.5047C20.1182 15.5812 20.1182 15.6577 20.1182 15.6959C20.1182 15.8488 20.1562 16.0017 20.1562 16.1547C20.1562 16.1929 20.1562 16.2694 20.1942 16.3076C20.2322 16.537 20.2702 16.7281 20.3082 16.9575C20.3462 17.1487 20.3841 17.3399 20.4221 17.531L25.36 25.1774L21.3717 7.85837C20.5361 9.80819 20.0803 11.9492 20.0803 14.1666C20.0803 14.396 20.0803 14.5872 20.0803 14.8166C20.0803 14.9313 20.0803 14.9695 20.0803 15.0459Z" fill="white"/>
<path d="M36.2613 17.6457C36.2993 17.4163 36.3373 17.1869 36.3753 16.9958C36.4133 16.7664 36.4512 16.5752 36.4892 16.3458C36.4892 16.3076 36.4892 16.2311 36.4892 16.1929C36.5272 16.04 36.5272 15.887 36.5272 15.6959C36.5272 15.6194 36.5272 15.543 36.5272 15.5047C36.5272 15.3518 36.5652 15.1989 36.5652 15.0459C36.5652 14.9695 36.5652 14.9313 36.5652 14.8548C36.5652 14.6254 36.5652 14.4342 36.5652 14.2048C36.5652 11.9492 36.1094 9.80819 35.2737 7.8966L31.3234 25.2538L36.2613 17.6457Z" fill="white"/>
<path d="M19.6245 18.181L19.5865 18.1427C19.4345 17.9898 19.2826 17.8751 19.0927 17.7222C18.9408 17.5692 18.7508 17.4546 18.5989 17.3016C18.5609 17.2634 18.5229 17.2252 18.485 17.2252C18.371 17.1105 18.2191 17.034 18.1051 16.9193C18.0671 16.8811 17.9912 16.8428 17.9532 16.8046C17.8392 16.7281 17.6873 16.6135 17.5733 16.537C17.5354 16.4988 17.4594 16.4605 17.4214 16.4223C17.2315 16.3076 17.0416 16.1929 16.8517 16.0782C14.9145 14.9695 12.8634 14.2813 10.7743 14.0519L23.7267 26.2096L19.6245 18.181Z" fill="white"/>
<path d="M8.53322 30.5298C8.72314 30.6445 8.91306 30.7592 9.10297 30.8357C9.17894 30.8739 9.21693 30.9121 9.29289 30.9121C9.44483 30.9886 9.55878 31.0651 9.71071 31.1033C9.78668 31.1415 9.82467 31.1798 9.90063 31.1798C10.0526 31.2562 10.2045 31.2945 10.3564 31.3709C10.3944 31.4092 10.4704 31.4092 10.5084 31.4474C10.6983 31.5238 10.9262 31.6003 11.1161 31.6768C11.306 31.7532 11.4959 31.8297 11.7239 31.8679C11.7239 31.8679 11.7238 31.8679 11.7618 31.8679L20.764 31.3709L3.74727 26.2096C5.00073 27.9301 6.59605 29.3829 8.53322 30.5298Z" fill="white"/>
<path d="M20.688 33.3972L11.6859 32.9002C11.4959 32.9767 11.306 33.0149 11.1161 33.0913C10.8502 33.206 10.6603 33.2825 10.4704 33.359C10.4324 33.3972 10.3564 33.3972 10.3185 33.4354C10.1665 33.5119 10.0146 33.5501 9.86265 33.6266C9.78668 33.6648 9.7487 33.7031 9.67273 33.7031C9.5208 33.7795 9.40684 33.8178 9.25491 33.8942C9.17894 33.9324 9.14096 33.9707 9.06499 33.9707C8.87507 34.0854 8.68515 34.1618 8.49523 34.2765C6.55807 35.3853 4.96275 36.8763 3.70929 38.5585L20.688 33.3972Z" fill="white"/>
<path d="M10.7363 50.7544C12.8254 50.525 14.8765 49.8369 16.8137 48.7282C17.0036 48.6135 17.1935 48.4988 17.3834 48.3841C17.4214 48.3458 17.4974 48.3076 17.5354 48.2694C17.6493 48.1929 17.8012 48.1164 17.9152 48.0017C17.9532 47.9635 18.0291 47.9253 18.0671 47.887C18.1811 47.8106 18.333 47.6959 18.447 47.5812C18.4849 47.543 18.5229 47.5047 18.5609 47.5047C18.9028 47.2371 19.2446 46.9695 19.5485 46.6636L23.6127 38.5967L10.7363 50.7544Z" fill="white"/>
<path d="M36.6032 49.7986C36.6032 49.6457 36.6032 49.4928 36.5652 49.3399C36.5652 49.2634 36.5652 49.1869 36.5652 49.1487C36.5652 48.9958 36.5272 48.8428 36.5272 48.6517C36.5272 48.6135 36.5272 48.537 36.4892 48.4988C36.4512 48.2694 36.4133 48.0782 36.3753 47.8488C36.3373 47.6577 36.2993 47.4283 36.2613 47.2371L31.3614 39.629L35.3497 56.9862C36.1854 55.0364 36.6412 52.8954 36.6412 50.678C36.6412 50.4486 36.6412 50.2574 36.6412 50.028C36.6032 49.9133 36.6032 49.8369 36.6032 49.7986Z" fill="white"/>
<path d="M20.4221 47.1989C20.3462 47.6194 20.2702 48.04 20.1942 48.4988C20.1942 48.537 20.1942 48.6135 20.1942 48.6517C20.1562 48.8046 20.1562 48.9575 20.1562 49.1487C20.1562 49.2252 20.1562 49.3016 20.1562 49.3399C20.1562 49.4928 20.1182 49.6457 20.1182 49.7986C20.1182 49.8751 20.1182 49.9133 20.1182 49.9898C20.1182 50.2192 20.1182 50.4103 20.1182 50.6397C20.1182 52.8954 20.5741 55.0364 21.4097 56.948L25.398 39.5908L20.4221 47.1989Z" fill="white"/>
<path d="M48.1502 34.3148C47.9603 34.2001 47.7704 34.0854 47.5805 34.0089C47.5045 33.9707 47.4665 33.9324 47.3905 33.9324C47.2386 33.856 47.1247 33.7795 46.9727 33.7413C46.8968 33.7031 46.8588 33.6648 46.7828 33.6648C46.6309 33.5884 46.4789 33.5501 46.327 33.4737C46.289 33.4354 46.2131 33.4354 46.1751 33.3972C45.9852 33.3207 45.7572 33.2443 45.5673 33.1678C45.3774 33.0913 45.1875 33.0149 44.9976 32.9767L35.9954 33.4737L52.9362 38.6732C51.6827 36.9145 50.0874 35.4235 48.1502 34.3148Z" fill="white"/>
<path d="M37.097 46.7019C37.2489 46.8548 37.4388 47.0077 37.5908 47.1224C37.7427 47.2753 37.9326 47.39 38.0845 47.543C38.1225 47.5812 38.1605 47.6194 38.1985 47.6194C38.3124 47.7341 38.4644 47.8106 38.5783 47.9253C38.6163 47.9635 38.6923 48.0017 38.7303 48.04C38.8442 48.1164 38.9961 48.2311 39.1101 48.3076C39.1481 48.3458 39.2241 48.3841 39.262 48.4223C39.452 48.537 39.6419 48.6517 39.8318 48.7664C41.769 49.8751 43.8201 50.5633 45.9092 50.7927L33.0327 38.635L37.097 46.7019Z" fill="white"/>
<path d="M45.9852 14.0519C43.896 14.2813 41.8449 14.9695 39.9078 16.0782C39.7178 16.1929 39.5279 16.3076 39.338 16.4223C39.3 16.4605 39.2241 16.4988 39.1861 16.537C39.0721 16.6135 38.9202 16.6899 38.8062 16.8046C38.7303 16.8428 38.6923 16.8811 38.6163 16.9193C38.5024 16.9958 38.3504 17.1105 38.2365 17.1869C38.1985 17.2252 38.1605 17.2634 38.1225 17.2634C37.9706 17.3781 37.7807 17.531 37.6287 17.6839C37.4768 17.8369 37.3249 17.9516 37.1729 18.1045L33.0327 26.2479L45.9852 14.0519Z" fill="white"/>
<path d="M56.0888 16.8046L35.8435 29.3064V28.083L34.78 27.4713L55.671 16.0782C53.1261 14.6254 50.2013 13.899 47.2766 14.0137L34.742 27.433L32.9567 26.4008L32.8808 26.3626L32.425 26.0949L31.7792 25.7126L31.3234 25.445L31.2855 25.4068L29.4622 24.3745L34.78 6.71142C33.3746 4.11166 31.3234 1.93245 28.7785 0.441406L29.3863 24.3363L28.3227 23.7246L27.2592 24.3363L27.8669 0.441406C25.36 1.93245 23.3089 4.11166 21.9035 6.71142L27.2592 24.3363L25.474 25.3685L25.398 25.4068L24.9422 25.6744L24.2965 26.0567L23.8407 26.3243L23.7647 26.4008L21.9415 27.4713L9.44483 13.9755C6.52008 13.8608 3.59534 14.5872 1.05043 16.04L21.9035 27.4713L20.8399 28.083V29.3064L0.594624 16.7664C0.632608 19.7485 1.46825 22.6541 3.02558 25.1774L20.8399 29.3446V35.5382L2.9876 39.7054C1.43027 42.2287 0.594624 45.1344 0.556641 48.0782L20.802 35.5764V36.7998L21.8655 37.4115L1.05043 48.8046C3.59534 50.2574 6.52008 50.9838 9.44483 50.8691L21.9415 37.4115L23.7647 38.4438L23.8027 38.482L24.2585 38.7497L24.9042 39.132L25.36 39.3996L25.398 39.4378L27.2212 40.4701L21.9035 58.1332C23.2709 60.7329 25.36 62.9121 27.9049 64.4414L27.2972 40.5465L28.3607 41.1583L29.4243 40.5465L28.8165 64.4414C31.3614 62.9504 33.4125 60.7712 34.8179 58.1332L29.4622 40.5083L31.2855 39.4761L31.3234 39.4378L31.7792 39.1702L32.425 38.7879L32.8808 38.5203L32.9567 38.482L34.78 37.4498L47.2766 50.9074C50.2393 51.0221 53.1261 50.2956 55.709 48.8428L34.78 37.3733L35.8435 36.7616V35.5382L56.0888 48.0017C56.0508 45.0579 55.2152 42.1523 53.6579 39.6672L35.8055 35.5V29.3064L53.6579 25.1391C55.2152 22.6541 56.0508 19.7867 56.0888 16.8046Z" fill="white"/>
<path d="M35.9954 31.4474L44.9976 31.9444C44.9976 31.9444 44.9976 31.9444 45.0356 31.9444C45.2255 31.8679 45.4154 31.8297 45.6433 31.7532C45.8332 31.6768 46.0611 31.6003 46.251 31.5238C46.289 31.4856 46.365 31.4856 46.403 31.4474C46.5549 31.3709 46.7068 31.3327 46.8588 31.2562C46.9347 31.218 46.9727 31.1798 47.0487 31.1798C47.2006 31.1033 47.3146 31.0268 47.4665 30.9886C47.5425 30.9504 47.5805 30.9121 47.6564 30.9121C47.8464 30.7974 48.0363 30.721 48.2262 30.6063C50.1634 29.4976 51.7587 28.0065 53.0121 26.3243L35.9954 31.4474Z" fill="white"/>
</svg>
