<svg width="308" height="241" viewBox="0 0 308 241" fill="none" xmlns="http://www.w3.org/2000/svg">
<rect width="306.885" height="240" transform="translate(0.557373 0.441406)" fill="url(#paint0_linear_3104_45846)"/>
<path d="M110.926 126.712L108.078 115.357C107.926 114.631 107.698 113.675 107.698 113.369C107.698 112.719 108.078 112.566 109.255 112.337C110.205 112.146 110.698 112.031 110.926 112.031C111.534 112.031 111.686 112.375 111.876 113.331C112.826 117.575 113.509 120.863 114.155 124.724C114.155 124.839 114.231 124.839 114.307 124.839C114.383 124.839 114.459 124.839 114.459 124.724C115.181 121.169 115.94 117.345 116.738 114.172C117.194 112.184 117.232 112.184 119.587 112.184C121.942 112.184 121.98 112.184 122.397 114.172C123.385 118.301 123.955 121.054 124.714 124.724C124.752 124.839 124.79 124.839 124.866 124.839C124.942 124.839 124.98 124.839 125.018 124.724C125.626 121.016 126.462 117.116 127.259 113.446C127.449 112.528 127.563 112.031 128.209 112.031C128.551 112.031 129.083 112.146 129.88 112.299C131.21 112.566 131.4 112.796 131.4 113.293C131.4 113.561 131.248 114.44 131.058 115.319L128.209 126.712C127.677 128.853 127.677 128.853 124.866 128.853C122.132 128.853 122.132 128.853 121.714 126.712L119.701 117.537C119.701 117.46 119.625 117.422 119.549 117.422C119.473 117.422 119.435 117.46 119.397 117.537L117.308 126.712C116.89 128.853 116.89 128.853 114.155 128.853C111.42 128.815 111.42 128.815 110.926 126.712Z" fill="white"/>
<path d="M134.894 128.852C133.717 128.737 133.451 128.737 133.451 127.858C133.451 127.629 133.489 127.323 133.489 126.902C133.565 125.373 133.603 125.067 134.362 125.067C134.742 125.067 135.692 125.144 136.869 125.144C138.882 125.144 141.199 124.494 141.199 122.773C141.199 121.932 140.592 121.091 139.338 121.091C138.73 121.091 138.313 121.206 137.819 121.206C137.439 121.206 137.211 121.091 136.755 120.365C136.451 119.868 136.261 119.562 136.261 119.294C136.261 118.874 136.565 118.606 137.097 118.033L139.3 115.586V115.547H135.502C133.527 115.547 133.527 115.547 133.527 113.674C133.527 111.801 133.527 111.801 135.464 111.801H141.579C143.44 111.801 143.364 111.801 143.858 113.101C144.086 113.789 144.276 114.248 144.276 114.668C144.276 114.974 144.162 115.242 143.706 115.662L141.237 118.147C143.554 118.415 145.074 120.212 145.074 122.697C145.074 126.826 141.123 128.852 136.641 128.852C136.299 128.929 135.578 128.929 134.894 128.852Z" fill="white"/>
<path d="M148.758 127.437C148.226 127.055 148.036 126.672 148.036 125.908V108.589C148.036 106.562 148.036 106.562 150.088 106.562C152.139 106.562 152.139 106.562 152.139 108.589V112.603C153.05 112.183 154.418 111.877 155.671 111.877C159.356 111.877 162.014 114.476 162.318 118.185C162.432 119.408 162.432 121.549 162.318 122.773C162.014 126.481 159.356 129.081 155.215 129.081C152.177 129.119 149.746 128.125 148.758 127.437ZM155.063 125.067C157.076 125.067 158.102 123.843 158.254 122.085C158.33 121.167 158.33 120.058 158.254 118.988C158.102 117.229 157.076 116.006 155.063 116.006C154.038 116.006 152.822 116.312 152.177 116.77V124.34C152.822 124.761 154.038 125.067 155.063 125.067Z" fill="white"/>
<path d="M165.471 127.321C165.015 126.977 164.673 126.709 164.673 126.403C164.673 126.097 164.863 125.83 165.433 124.95C166.041 123.994 166.269 123.803 166.573 123.803C166.876 123.803 167.104 123.994 167.522 124.262C168.662 124.989 169.611 125.409 171.358 125.409C172.954 125.409 173.637 124.759 173.637 123.918C173.637 123.268 173.182 122.771 171.89 122.465L169.573 121.93C167.18 121.356 165.205 119.865 165.205 117.113C165.205 113.825 167.978 111.875 171.358 111.875C173.41 111.875 175.119 112.487 176.41 113.404C176.904 113.748 177.056 114.016 177.056 114.245C177.056 114.589 176.904 114.895 176.296 115.775C175.689 116.692 175.385 116.96 175.081 116.96C174.815 116.96 174.587 116.769 174.055 116.463C173.486 116.119 172.46 115.622 171.32 115.622C169.801 115.622 169.155 116.195 169.155 116.998C169.155 117.648 169.611 118.069 170.979 118.374L173.03 118.833C176.22 119.56 177.664 121.127 177.664 123.727C177.664 127.053 174.853 129.041 171.358 129.041C168.776 129.118 166.838 128.315 165.471 127.321Z" fill="white"/>
<path d="M180.475 123.348V110.655C180.475 108.629 180.475 108.629 182.526 108.629C184.577 108.629 184.577 108.629 184.577 110.655V112.223H188.299C190.198 112.223 190.198 112.223 190.198 114.134C190.198 116.046 190.198 116.046 188.299 116.046H184.577V122.928C184.577 124.533 185.147 125.222 186.552 125.222C187.236 125.222 187.957 125.03 188.489 124.801C188.945 124.648 189.249 124.533 189.477 124.533C189.933 124.533 190.122 124.839 190.616 126.024C190.996 126.98 191.034 127.171 191.034 127.362C191.034 127.783 190.73 127.974 190.046 128.28C188.869 128.815 187.502 129.083 186.324 129.083C182.868 129.121 180.475 127.171 180.475 123.348Z" fill="white"/>
<path d="M193.085 126.786V117.572C193.085 114.132 195.174 111.914 198.441 111.914C199.542 111.914 200.72 112.067 201.594 112.335C202.429 112.602 202.961 112.717 202.961 113.329C202.961 113.634 202.885 113.94 202.619 114.896C202.315 116.043 202.125 116.387 201.632 116.387C201.366 116.387 201.062 116.311 200.682 116.234C200.226 116.12 199.504 116.005 198.973 116.005C197.795 116.005 197.263 116.578 197.263 117.802V126.824C197.263 128.851 197.263 128.851 195.212 128.851C193.085 128.813 193.085 128.813 193.085 126.786Z" fill="white"/>
<path d="M204.138 122.734C204.062 121.587 204.024 119.637 204.138 118.566C204.48 114.705 207.253 111.914 211.507 111.914C215.837 111.914 218.344 114.705 218.344 118.91V119.752C218.344 121.625 217.964 121.893 216.331 121.893H208.013V122.351C208.089 124.148 209.532 125.372 211.621 125.372C213.064 125.372 213.976 125.104 214.812 124.722C215.344 124.492 215.723 124.301 216.065 124.301C216.445 124.301 216.673 124.607 217.129 125.678C217.471 126.48 217.547 126.786 217.547 127.016C217.547 127.36 217.357 127.589 216.483 127.971C215.192 128.545 213.444 129.08 211.583 129.08C207.329 129.118 204.442 126.48 204.138 122.734ZM214.584 119.025C214.736 116.769 213.406 115.431 211.317 115.431C209.304 115.431 208.089 116.846 208.013 118.949V119.063H214.584V119.025Z" fill="white"/>
<path d="M220.243 123.766C220.243 121.128 222.219 118.719 226.397 118.719C227.612 118.719 228.752 118.872 229.967 119.216V118.031C229.967 116.502 229.132 115.661 226.815 115.661C225.789 115.661 224.574 116.005 223.7 116.349C223.244 116.54 222.902 116.617 222.674 116.617C222.257 116.617 222.067 116.349 221.611 115.24C221.307 114.514 221.231 114.093 221.231 113.826C221.231 113.405 221.421 113.214 222.446 112.832C223.738 112.296 225.257 111.914 227.08 111.914C231.449 111.914 233.918 113.864 233.918 118.222V125.907C233.918 126.672 233.728 127.054 233.196 127.436C232.208 128.124 229.777 129.157 226.663 129.157C222.446 129.118 220.243 126.672 220.243 123.766ZM227.005 125.754C228.106 125.754 229.208 125.486 230.043 125.066V122.045C228.98 121.701 228.03 121.548 227.194 121.548C225.143 121.548 224.194 122.466 224.194 123.728C224.194 124.989 225.333 125.754 227.005 125.754Z" fill="white"/>
<path d="M237.45 126.785V116.195C237.45 114.437 237.526 114.016 238.514 113.404C239.577 112.754 241.628 111.875 243.907 111.875C245.959 111.875 247.402 112.448 248.541 113.595C249.947 112.601 251.58 111.875 253.555 111.875C257.62 111.875 259.443 114.322 259.443 118.069V126.747C259.443 128.773 259.443 128.773 257.392 128.773C255.341 128.773 255.341 128.773 255.341 126.747V118.718C255.341 116.922 254.619 115.966 252.91 115.966C251.96 115.966 251.086 116.386 250.479 116.883C250.555 117.572 250.555 118.03 250.555 118.871V126.785C250.555 128.812 250.555 128.812 248.465 128.812C246.414 128.812 246.414 128.812 246.414 126.785V118.642C246.414 116.769 245.579 115.928 243.907 115.928C243.034 115.928 242.084 116.386 241.59 116.692V126.747C241.59 128.773 241.59 128.773 239.501 128.773C237.45 128.812 237.45 128.812 237.45 126.785Z" fill="white"/>
<path d="M68.081 103.046C68.081 103.199 68.081 103.352 68.119 103.505C68.119 103.581 68.119 103.658 68.119 103.696C68.119 103.849 68.157 104.002 68.157 104.155C68.157 104.193 68.157 104.269 68.1949 104.308C68.2329 104.537 68.2709 104.728 68.3089 104.958C68.3469 105.149 68.3849 105.34 68.4229 105.531L73.3607 113.177L69.3724 95.8584C68.5368 97.8082 68.081 99.9492 68.081 102.167C68.081 102.396 68.081 102.587 68.081 102.817C68.081 102.931 68.081 102.969 68.081 103.046Z" fill="white"/>
<path d="M84.2621 105.646C84.3 105.416 84.338 105.187 84.376 104.996C84.414 104.766 84.452 104.575 84.49 104.346C84.49 104.308 84.49 104.231 84.49 104.193C84.5279 104.04 84.5279 103.887 84.5279 103.696C84.5279 103.619 84.5279 103.543 84.5279 103.505C84.5279 103.352 84.5659 103.199 84.5659 103.046C84.5659 102.969 84.5659 102.931 84.5659 102.855C84.5659 102.625 84.5659 102.434 84.5659 102.205C84.5659 99.9492 84.1101 97.8082 83.2745 95.8966L79.3242 113.254L84.2621 105.646Z" fill="white"/>
<path d="M67.6252 106.181L67.5872 106.143C67.4353 105.99 67.2833 105.875 67.0934 105.722C66.9415 105.569 66.7516 105.455 66.5996 105.302C66.5617 105.263 66.5237 105.225 66.4857 105.225C66.3717 105.11 66.2198 105.034 66.1058 104.919C66.0679 104.881 65.9919 104.843 65.9539 104.805C65.84 104.728 65.688 104.613 65.5741 104.537C65.5361 104.499 65.4601 104.461 65.4221 104.422C65.2322 104.308 65.0423 104.193 64.8524 104.078C62.9152 102.969 60.8641 102.281 58.775 102.052L71.7274 114.21L67.6252 106.181Z" fill="white"/>
<path d="M56.534 118.53C56.7239 118.645 56.9138 118.759 57.1037 118.836C57.1797 118.874 57.2177 118.912 57.2936 118.912C57.4456 118.989 57.5595 119.065 57.7114 119.103C57.7874 119.142 57.8254 119.18 57.9014 119.18C58.0533 119.256 58.2052 119.294 58.3572 119.371C58.3952 119.409 58.4711 119.409 58.5091 119.447C58.699 119.524 58.9269 119.6 59.1168 119.677C59.3068 119.753 59.4967 119.83 59.7246 119.868C59.7246 119.868 59.7246 119.868 59.7626 119.868L68.7647 119.371L51.748 114.21C53.0015 115.93 54.5968 117.383 56.534 118.53Z" fill="white"/>
<path d="M68.6887 121.397L59.6866 120.9C59.4967 120.977 59.3068 121.015 59.1168 121.091C58.851 121.206 58.661 121.283 58.4711 121.359C58.4331 121.397 58.3572 121.397 58.3192 121.435C58.1673 121.512 58.0153 121.55 57.8634 121.627C57.7874 121.665 57.7494 121.703 57.6735 121.703C57.5215 121.78 57.4076 121.818 57.2556 121.894C57.1797 121.932 57.1417 121.971 57.0657 121.971C56.8758 122.085 56.6859 122.162 56.496 122.277C54.5588 123.385 52.9635 124.876 51.71 126.558L68.6887 121.397Z" fill="white"/>
<path d="M58.737 138.754C60.8261 138.525 62.8772 137.837 64.8144 136.728C65.0043 136.613 65.1942 136.499 65.3842 136.384C65.4221 136.346 65.4981 136.308 65.5361 136.269C65.65 136.193 65.802 136.116 65.9159 136.002C65.9539 135.964 66.0299 135.925 66.0679 135.887C66.1818 135.811 66.3337 135.696 66.4477 135.581C66.4857 135.543 66.5237 135.505 66.5616 135.505C66.9035 135.237 67.2454 134.969 67.5492 134.664L71.6135 126.597L58.737 138.754Z" fill="white"/>
<path d="M84.6039 137.799C84.6039 137.646 84.6039 137.493 84.5659 137.34C84.5659 137.263 84.5659 137.187 84.5659 137.149C84.5659 136.996 84.5279 136.843 84.5279 136.652C84.5279 136.613 84.5279 136.537 84.49 136.499C84.452 136.269 84.414 136.078 84.376 135.849C84.338 135.658 84.3 135.428 84.2621 135.237L79.3622 127.629L83.3504 144.986C84.1861 143.036 84.6419 140.895 84.6419 138.678C84.6419 138.449 84.6419 138.257 84.6419 138.028C84.6039 137.913 84.6039 137.837 84.6039 137.799Z" fill="white"/>
<path d="M68.4229 135.199C68.3469 135.619 68.2709 136.04 68.1949 136.499C68.1949 136.537 68.1949 136.613 68.1949 136.652C68.157 136.805 68.157 136.958 68.157 137.149C68.157 137.225 68.157 137.302 68.157 137.34C68.157 137.493 68.119 137.646 68.119 137.799C68.119 137.875 68.119 137.913 68.119 137.99C68.119 138.219 68.119 138.41 68.119 138.64C68.119 140.895 68.5748 143.036 69.4104 144.948L73.3987 127.591L68.4229 135.199Z" fill="white"/>
<path d="M96.151 122.315C95.961 122.2 95.7711 122.085 95.5812 122.009C95.5052 121.971 95.4672 121.932 95.3913 121.932C95.2393 121.856 95.1254 121.78 94.9735 121.741C94.8975 121.703 94.8595 121.665 94.7835 121.665C94.6316 121.588 94.4797 121.55 94.3277 121.474C94.2898 121.435 94.2138 121.435 94.1758 121.397C93.9859 121.321 93.758 121.244 93.5681 121.168C93.3781 121.091 93.1882 121.015 92.9983 120.977L83.9962 121.474L100.937 126.673C99.6834 124.915 98.0881 123.423 96.151 122.315Z" fill="white"/>
<path d="M85.0977 134.702C85.2496 134.855 85.4396 135.008 85.5915 135.122C85.7434 135.275 85.9333 135.39 86.0853 135.543C86.1233 135.581 86.1612 135.619 86.1992 135.619C86.3132 135.734 86.4651 135.811 86.5791 135.925C86.617 135.964 86.693 136.002 86.731 136.04C86.8449 136.116 86.9969 136.231 87.1108 136.308C87.1488 136.346 87.2248 136.384 87.2628 136.422C87.4527 136.537 87.6426 136.652 87.8325 136.766C89.7697 137.875 91.8208 138.563 93.9099 138.793L81.0334 126.635L85.0977 134.702Z" fill="white"/>
<path d="M93.9859 102.052C91.8968 102.281 89.8457 102.969 87.9085 104.078C87.7186 104.193 87.5287 104.308 87.3387 104.422C87.3008 104.461 87.2248 104.499 87.1868 104.537C87.0729 104.613 86.9209 104.69 86.807 104.805C86.731 104.843 86.693 104.881 86.617 104.919C86.5031 104.996 86.3512 105.11 86.2372 105.187C86.1992 105.225 86.1612 105.263 86.1233 105.263C85.9713 105.378 85.7814 105.531 85.6295 105.684C85.4775 105.837 85.3256 105.952 85.1737 106.104L81.0334 114.248L93.9859 102.052Z" fill="white"/>
<path d="M104.09 104.805L83.8442 117.306V116.083L82.7807 115.471L103.672 104.078C101.127 102.625 98.2021 101.899 95.2773 102.014L82.7427 115.433L80.9575 114.401L80.8815 114.363L80.4257 114.095L79.78 113.713L79.3242 113.445L79.2862 113.407L77.463 112.375L82.7807 94.7114C81.3753 92.1117 79.3242 89.9324 76.7793 88.4414L77.387 112.336L76.3235 111.725L75.2599 112.336L75.8677 88.4414C73.3607 89.9324 71.3096 92.1117 69.9042 94.7114L75.2599 112.336L73.4747 113.369L73.3987 113.407L72.9429 113.674L72.2972 114.057L71.8414 114.324L71.7654 114.401L69.9422 115.471L57.4456 101.975C54.5208 101.861 51.5961 102.587 49.0512 104.04L69.9042 115.471L68.8407 116.083V117.306L48.5954 104.766C48.6333 107.748 49.469 110.654 51.0263 113.177L68.8407 117.345V123.538L50.9883 127.705C49.431 130.229 48.5954 133.134 48.5574 136.078L68.8027 123.576V124.8L69.8662 125.412L49.0512 136.805C51.5961 138.257 54.5208 138.984 57.4456 138.869L69.9422 125.412L71.7654 126.444L71.8034 126.482L72.2592 126.75L72.9049 127.132L73.3607 127.4L73.3987 127.438L75.2219 128.47L69.9042 146.133C71.2716 148.733 73.3607 150.912 75.9056 152.441L75.2979 128.547L76.3614 129.158L77.425 128.547L76.8173 152.441C79.3622 150.95 81.4133 148.771 82.8187 146.133L77.463 128.508L79.2862 127.476L79.3242 127.438L79.78 127.17L80.4257 126.788L80.8815 126.52L80.9575 126.482L82.7807 125.45L95.2773 138.907C98.2401 139.022 101.127 138.296 103.71 136.843L82.7807 125.373L83.8442 124.762V123.538L104.09 136.002C104.052 133.058 103.216 130.152 101.659 127.667L83.8062 123.5V117.306L101.659 113.139C103.216 110.654 104.052 107.787 104.09 104.805Z" fill="white"/>
<path d="M83.9962 119.447L92.9983 119.944C92.9983 119.944 92.9983 119.944 93.0363 119.944C93.2262 119.868 93.4161 119.83 93.644 119.753C93.8339 119.677 94.0618 119.6 94.2518 119.524C94.2898 119.486 94.3657 119.486 94.4037 119.447C94.5556 119.371 94.7076 119.333 94.8595 119.256C94.9355 119.218 94.9735 119.18 95.0494 119.18C95.2014 119.103 95.3153 119.027 95.4672 118.989C95.5432 118.95 95.5812 118.912 95.6572 118.912C95.8471 118.797 96.037 118.721 96.2269 118.606C98.1641 117.498 99.7594 116.007 101.013 114.324L83.9962 119.447Z" fill="white"/>
<defs>
<linearGradient id="paint0_linear_3104_45846" x1="0" y1="0" x2="347.159" y2="140.456" gradientUnits="userSpaceOnUse">
<stop stop-color="#00C2FF"/>
<stop offset="1" stop-color="#CC00FF"/>
</linearGradient>
</defs>
</svg>
