<svg width="306" height="243" viewBox="0 0 306 243" fill="none" xmlns="http://www.w3.org/2000/svg">
<rect width="306" height="241.557" transform="translate(0 0.882812)" fill="url(#paint0_linear_3104_45860)"/>
<path d="M68.7487 189.577L65.4604 176.728C65.258 175.868 65.0557 174.805 65.0557 174.451C65.0557 173.743 65.511 173.54 66.8769 173.288C67.9393 173.085 68.5463 172.933 68.7993 172.933C69.5075 172.933 69.6593 173.288 69.9123 174.4C70.9746 179.206 71.7841 182.95 72.5429 187.301C72.5429 187.402 72.6441 187.453 72.6947 187.453C72.7959 187.453 72.8464 187.453 72.8464 187.301C73.6559 183.254 74.5665 178.954 75.4771 175.362C76.0336 173.136 76.0336 173.136 78.7654 173.136C81.4973 173.136 81.4972 173.136 82.0031 175.362C83.1161 180.067 83.8244 183.152 84.6844 187.301C84.735 187.402 84.7856 187.453 84.8867 187.453C84.9373 187.453 84.9879 187.453 85.0385 187.301C85.7468 183.102 86.708 178.701 87.6186 174.502C87.8715 173.439 87.9727 172.883 88.7315 172.883C89.1363 172.883 89.7433 173.035 90.654 173.186C92.1716 173.49 92.4246 173.743 92.4246 174.299C92.4246 174.603 92.2728 175.615 92.0199 176.576L88.7315 189.476C88.1245 191.854 88.1245 191.854 84.8867 191.854C81.6996 191.854 81.6996 191.854 81.2443 189.476L78.9172 179.257C78.9172 179.156 78.816 179.105 78.7654 179.105C78.6642 179.105 78.6136 179.156 78.6136 179.257L76.2359 189.628C75.7301 192.006 75.73 192.006 72.5935 192.006C69.3052 192.006 69.3052 192.006 68.7487 189.577Z" fill="white"/>
<path d="M96.4212 192.056C95.0553 191.955 94.7517 191.904 94.7517 190.943C94.7517 190.69 94.8023 190.336 94.8023 189.881C94.9035 188.161 94.9541 187.807 95.8141 187.807C96.2188 187.807 97.3318 187.908 98.6977 187.908C100.974 187.908 103.706 187.149 103.706 185.227C103.706 184.316 102.998 183.355 101.531 183.355C100.822 183.355 100.317 183.507 99.7601 183.507C99.3048 183.507 99.0518 183.405 98.5459 182.545C98.1918 181.989 97.9894 181.635 97.9894 181.331C97.9894 180.876 98.3436 180.572 98.9506 179.915L101.531 177.132V177.082H97.1294C94.8529 177.082 94.8529 177.082 94.8529 175.008C94.8529 172.883 94.8529 172.883 97.0788 172.883H104.161C106.337 172.883 106.236 172.883 106.792 174.35C107.096 175.109 107.298 175.665 107.298 176.121C107.298 176.475 107.146 176.778 106.64 177.234L103.807 180.067C106.488 180.37 108.209 182.444 108.209 185.176C108.209 189.881 103.655 192.157 98.4448 192.157C97.9894 192.107 97.18 192.107 96.4212 192.056Z" fill="white"/>
<path d="M112.357 190.438C111.75 190.033 111.497 189.578 111.497 188.718V169.14C111.497 166.863 111.497 166.863 113.875 166.863C116.252 166.863 116.252 166.863 116.252 169.14V173.693C117.264 173.238 118.883 172.883 120.299 172.883C124.549 172.883 127.584 175.818 127.989 180.017C128.09 181.433 128.09 183.811 127.989 185.227C127.635 189.426 124.549 192.36 119.793 192.36C116.303 192.31 113.52 191.197 112.357 190.438ZM119.642 187.757C121.969 187.757 123.183 186.391 123.335 184.367C123.436 183.305 123.436 182.04 123.335 180.826C123.183 178.802 121.969 177.436 119.642 177.436C118.478 177.436 117.062 177.791 116.303 178.297V186.846C117.062 187.403 118.478 187.757 119.642 187.757Z" fill="white"/>
<path d="M131.631 190.336C131.075 189.931 130.721 189.628 130.721 189.324C130.721 188.97 130.923 188.667 131.581 187.655C132.289 186.593 132.542 186.34 132.896 186.34C133.25 186.34 133.503 186.593 133.958 186.846C135.274 187.655 136.336 188.161 138.41 188.161C140.232 188.161 141.041 187.402 141.041 186.441C141.041 185.682 140.484 185.125 139.017 184.822L136.336 184.215C133.554 183.608 131.277 181.888 131.277 178.802C131.277 175.109 134.464 172.883 138.36 172.883C140.737 172.883 142.71 173.591 144.178 174.603C144.734 175.008 144.936 175.311 144.936 175.564C144.936 175.918 144.734 176.272 144.076 177.284C143.368 178.296 143.065 178.65 142.66 178.65C142.356 178.65 142.103 178.397 141.446 178.094C140.788 177.689 139.624 177.132 138.309 177.132C136.589 177.132 135.78 177.79 135.78 178.701C135.78 179.459 136.336 179.915 137.854 180.269L140.232 180.775C143.874 181.584 145.594 183.405 145.594 186.34C145.594 190.134 142.356 192.36 138.309 192.36C135.426 192.309 133.2 191.449 131.631 190.336Z" fill="white"/>
<path d="M148.933 185.785V171.417C148.933 169.141 148.933 169.141 151.311 169.141C153.688 169.141 153.688 169.141 153.688 171.417V173.188H157.988C160.164 173.188 160.164 173.188 160.164 175.363C160.164 177.538 160.164 177.538 157.988 177.538H153.688V185.329C153.688 187.15 154.346 187.909 155.965 187.909C156.774 187.909 157.584 187.707 158.191 187.454C158.697 187.252 159.051 187.15 159.304 187.15C159.86 187.15 160.063 187.505 160.619 188.871C161.074 189.933 161.074 190.135 161.074 190.388C161.074 190.844 160.72 191.096 159.911 191.451C158.545 192.058 156.977 192.361 155.611 192.361C151.665 192.311 148.933 190.135 148.933 185.785Z" fill="white"/>
<path d="M163.452 189.679V179.257C163.452 175.362 165.83 172.883 169.624 172.883C170.889 172.883 172.255 173.035 173.267 173.338C174.228 173.642 174.835 173.793 174.835 174.451C174.835 174.805 174.734 175.159 174.43 176.222C174.076 177.486 173.874 177.942 173.267 177.942C172.963 177.942 172.609 177.841 172.204 177.739C171.698 177.588 170.838 177.486 170.231 177.486C168.865 177.486 168.258 178.144 168.258 179.51V189.729C168.258 192.006 168.258 192.006 165.88 192.006C163.503 192.006 163.452 192.006 163.452 189.679Z" fill="white"/>
<path d="M176.252 185.125C176.15 183.81 176.15 181.635 176.252 180.421C176.656 176.07 179.844 172.883 184.751 172.883C189.708 172.883 192.643 176.019 192.643 180.825V181.736C192.643 183.861 192.187 184.164 190.316 184.164H180.704V184.67C180.754 186.744 182.424 188.11 184.852 188.11C186.521 188.11 187.533 187.807 188.545 187.402C189.152 187.149 189.557 186.947 189.961 186.947C190.417 186.947 190.67 187.301 191.226 188.515C191.631 189.426 191.732 189.78 191.732 190.033C191.732 190.437 191.479 190.64 190.518 191.095C189.051 191.753 187.027 192.36 184.852 192.36C179.894 192.309 176.606 189.324 176.252 185.125ZM188.241 180.927C188.444 178.397 186.875 176.829 184.498 176.829C182.171 176.829 180.754 178.448 180.653 180.775V180.876H188.241V180.927Z" fill="white"/>
<path d="M194.818 186.289C194.818 183.304 197.094 180.572 201.951 180.572C203.367 180.572 204.683 180.775 206.099 181.129V179.763C206.099 178.043 205.138 177.082 202.457 177.082C201.293 177.082 199.877 177.486 198.865 177.891C198.359 178.093 197.954 178.195 197.701 178.195C197.246 178.195 196.993 177.891 196.487 176.626C196.133 175.817 196.032 175.362 196.032 175.007C196.032 174.552 196.285 174.299 197.448 173.844C198.915 173.237 200.686 172.832 202.811 172.832C207.87 172.832 210.703 175.058 210.703 179.965V188.667C210.703 189.527 210.45 189.982 209.843 190.387C208.679 191.145 205.897 192.309 202.305 192.309C197.347 192.309 194.818 189.577 194.818 186.289ZM202.558 188.515C203.823 188.515 205.138 188.211 206.048 187.705V184.316C204.834 183.962 203.721 183.759 202.76 183.759C200.433 183.759 199.32 184.822 199.32 186.238C199.32 187.705 200.686 188.515 202.558 188.515Z" fill="white"/>
<path d="M214.649 189.678V177.689C214.649 175.716 214.75 175.21 215.914 174.552C217.128 173.793 219.506 172.832 222.136 172.832C224.514 172.832 226.183 173.49 227.499 174.754C229.118 173.591 231.04 172.832 233.266 172.832C237.971 172.832 240.045 175.564 240.045 179.864V189.678C240.045 191.955 240.045 191.955 237.667 191.955C235.289 191.955 235.289 191.955 235.289 189.678V180.522C235.289 178.447 234.48 177.436 232.507 177.436C231.394 177.436 230.382 177.942 229.725 178.498C229.775 179.307 229.826 179.813 229.826 180.724V189.678C229.826 191.955 229.826 191.955 227.448 191.955C225.07 191.955 225.07 191.955 225.07 189.678V180.471C225.07 178.346 224.109 177.436 222.187 177.436C221.175 177.436 220.062 177.942 219.506 178.296V189.678C219.506 191.955 219.506 191.955 217.128 191.955C214.649 192.005 214.649 192.005 214.649 189.678Z" fill="white"/>
<path d="M137.955 75.9557C137.955 76.2086 138.006 76.5122 138.006 76.7651C138.006 76.8663 138.006 77.0181 138.057 77.1193C138.107 77.3722 138.107 77.6757 138.158 77.9287C138.158 78.0299 138.158 78.131 138.208 78.2322C138.259 78.5864 138.31 78.9911 138.36 79.3452C138.36 79.3452 138.36 79.3452 138.36 79.3958C138.411 79.7499 138.512 80.0535 138.563 80.4076L147.112 93.6114L140.181 63.6119C138.714 66.9508 137.905 70.6438 137.905 74.5392C137.905 74.8933 137.905 75.298 137.905 75.6522C137.955 75.7027 137.955 75.8545 137.955 75.9557Z" fill="white"/>
<path d="M166.083 80.4574V80.4068C166.184 80.0527 166.235 79.6985 166.285 79.3444C166.336 78.9903 166.387 78.5856 166.437 78.2314C166.437 78.1303 166.437 78.0797 166.488 77.9785C166.538 77.6749 166.538 77.422 166.589 77.1185C166.589 77.0173 166.589 76.8655 166.64 76.7643C166.64 76.5114 166.69 76.2078 166.69 75.9549C166.69 75.8537 166.69 75.7525 166.69 75.6008C166.69 75.2467 166.69 74.8419 166.69 74.4878C166.69 70.5924 165.881 66.8994 164.464 63.5605L157.533 93.6106L166.083 80.4574Z" fill="white"/>
<path d="M137.146 81.3688C137.095 81.3688 137.095 81.3182 137.045 81.3182C136.792 81.0652 136.488 80.8123 136.235 80.6099C135.932 80.357 135.679 80.1546 135.375 79.9017C135.325 79.8511 135.223 79.8005 135.173 79.7499C134.97 79.5981 134.717 79.3958 134.515 79.244C134.414 79.1934 134.313 79.0922 134.212 79.0417C134.009 78.8899 133.756 78.7381 133.554 78.5864C133.453 78.5358 133.352 78.4852 133.25 78.384C132.947 78.1816 132.593 77.9793 132.289 77.7769C128.9 75.8545 125.308 74.691 121.665 74.2357L144.178 95.2809L137.146 81.3688Z" fill="white"/>
<path d="M117.821 102.716C118.124 102.919 118.478 103.07 118.833 103.273C118.934 103.323 119.035 103.374 119.136 103.425C119.389 103.526 119.591 103.678 119.844 103.779C119.946 103.829 120.047 103.88 120.148 103.931C120.401 104.032 120.654 104.183 120.907 104.285C121.008 104.335 121.058 104.335 121.16 104.386C121.514 104.538 121.868 104.689 122.222 104.791C122.576 104.892 122.93 105.043 123.234 105.145H123.284L138.917 104.285L109.473 95.2797C111.649 98.2139 114.482 100.743 117.821 102.716Z" fill="white"/>
<path d="M138.967 107.675L123.284 106.814C122.93 106.916 122.626 107.017 122.272 107.169C122.272 107.169 122.272 107.169 122.222 107.169C121.868 107.32 121.513 107.422 121.159 107.573C121.058 107.624 121.008 107.624 120.906 107.675C120.653 107.776 120.401 107.877 120.148 108.029C120.046 108.079 119.945 108.13 119.793 108.18C119.54 108.282 119.338 108.433 119.085 108.535C118.984 108.585 118.883 108.636 118.782 108.686C118.428 108.838 118.124 109.04 117.77 109.243C114.38 111.165 111.598 113.745 109.423 116.679L138.967 107.675Z" fill="white"/>
<path d="M121.615 137.725C125.257 137.32 128.849 136.156 132.188 134.183C132.492 133.981 132.846 133.779 133.149 133.576C133.251 133.526 133.352 133.475 133.453 133.374C133.655 133.222 133.908 133.07 134.111 132.919C134.212 132.868 134.313 132.767 134.414 132.716C134.667 132.565 134.869 132.362 135.072 132.21C135.122 132.16 135.224 132.109 135.274 132.059C135.881 131.603 136.438 131.097 136.994 130.642C136.994 130.642 136.994 130.642 137.045 130.642L144.127 116.679L121.615 137.725Z" fill="white"/>
<path d="M166.69 136.056C166.69 135.803 166.64 135.5 166.64 135.247C166.64 135.145 166.64 134.994 166.589 134.892C166.538 134.589 166.538 134.336 166.488 134.083C166.488 133.982 166.488 133.881 166.437 133.83C166.387 133.476 166.336 133.071 166.285 132.717C166.235 132.363 166.134 132.009 166.083 131.655L157.533 118.501L164.464 148.501C165.931 145.162 166.69 141.469 166.69 137.574C166.69 137.22 166.69 136.815 166.69 136.461C166.69 136.258 166.69 136.157 166.69 136.056Z" fill="white"/>
<path d="M138.563 131.552C138.411 132.311 138.259 133.019 138.158 133.778C138.158 133.879 138.158 133.93 138.107 134.031C138.057 134.334 138.057 134.587 138.006 134.891C138.006 134.992 138.006 135.144 137.955 135.245C137.955 135.498 137.905 135.801 137.905 136.054C137.905 136.156 137.905 136.257 137.905 136.409C137.905 136.763 137.905 137.167 137.905 137.522C137.905 141.417 138.714 145.11 140.181 148.449L147.112 118.399L138.563 131.552Z" fill="white"/>
<path d="M186.825 109.294C186.521 109.092 186.167 108.94 185.813 108.738C185.712 108.687 185.61 108.637 185.509 108.586C185.256 108.485 185.054 108.333 184.801 108.232C184.7 108.181 184.599 108.131 184.447 108.08C184.194 107.979 183.941 107.878 183.688 107.726C183.587 107.675 183.536 107.675 183.435 107.625C183.081 107.473 182.727 107.321 182.373 107.22C182.019 107.119 181.715 106.967 181.361 106.866L165.678 107.726L195.172 116.731C192.946 113.746 190.164 111.217 186.825 109.294Z" fill="white"/>
<path d="M167.55 130.692C167.854 130.945 168.107 131.198 168.41 131.451C168.714 131.704 168.967 131.906 169.27 132.159C169.321 132.21 169.422 132.261 169.473 132.311C169.675 132.463 169.928 132.665 170.13 132.817C170.232 132.868 170.333 132.969 170.434 133.019C170.636 133.171 170.889 133.323 171.092 133.475C171.193 133.525 171.294 133.576 171.395 133.677C171.699 133.879 172.053 134.082 172.356 134.284C175.695 136.207 179.338 137.37 182.93 137.825L160.417 116.78L167.55 130.692Z" fill="white"/>
<path d="M182.98 74.2357C179.337 74.6404 175.745 75.8039 172.407 77.7769C172.103 77.9793 171.749 78.1816 171.445 78.384C171.344 78.4346 171.243 78.4852 171.142 78.5864C170.939 78.7381 170.686 78.8899 170.484 79.0417C170.383 79.0922 170.282 79.1934 170.181 79.244C169.928 79.3958 169.725 79.5476 169.523 79.7499C169.472 79.8005 169.371 79.8511 169.321 79.9017C169.017 80.1546 168.713 80.357 168.461 80.6099C168.157 80.8629 167.904 81.0652 167.651 81.3182C167.651 81.3182 167.651 81.3182 167.601 81.3688L160.518 95.3315L182.98 74.2357Z" fill="white"/>
<path d="M200.636 78.9903L165.375 100.592V98.4672L163.554 97.4048L199.927 77.6749C195.476 75.1455 190.417 73.9313 185.307 74.0831L163.554 97.3543L160.417 95.533L160.316 95.4824L159.506 95.0271L158.343 94.3695L157.533 93.9142L157.432 93.8636L154.296 92.0424L163.604 61.5369C161.226 57.0344 157.584 53.2402 153.183 50.6602L154.245 91.9918L152.373 90.9294L150.552 91.9918L151.614 50.6602C147.213 53.2402 143.571 57.0344 141.193 61.5369L150.501 91.9918L147.365 93.813L147.264 93.8636L146.454 94.3189L145.291 94.9766L144.481 95.4319L144.38 95.4824L141.244 97.3037L119.49 73.9819C114.381 73.7796 109.322 75.0443 104.87 77.5232L141.193 97.2531L139.321 98.3155V100.44L104.06 78.7879C104.111 83.8974 105.578 88.9564 108.259 93.3071L139.321 100.491V111.216L108.259 118.399C105.527 122.75 104.06 127.759 104.06 132.919L139.321 111.266V113.391L141.142 114.454L104.819 134.183C109.271 136.713 114.33 137.927 119.44 137.725L141.193 114.454L144.33 116.275L144.431 116.325L145.24 116.781L146.404 117.438L147.213 117.894L147.314 117.944L150.451 119.765L141.142 150.423C143.52 154.925 147.163 158.719 151.564 161.299L150.501 119.968L152.373 121.03L154.194 119.968L153.132 161.299C157.533 158.719 161.125 154.925 163.554 150.423L154.245 119.917L157.382 118.096L157.483 118.045L158.292 117.59L159.456 116.932L160.265 116.477L160.366 116.426L163.503 114.605L185.256 137.927C190.366 138.129 195.476 136.865 199.927 134.335L163.554 114.605L165.425 113.543V111.418L200.686 133.02C200.636 127.91 199.169 122.902 196.487 118.602L165.425 111.418V100.643L196.487 93.4589C199.118 89.1082 200.585 84.0998 200.636 78.9903Z" fill="white"/>
<path d="M165.678 104.285L181.31 105.145H181.361C181.715 105.043 182.069 104.942 182.373 104.791C182.727 104.639 183.081 104.538 183.435 104.386C183.536 104.335 183.587 104.335 183.688 104.285C183.941 104.183 184.194 104.082 184.447 103.931C184.548 103.88 184.649 103.829 184.75 103.779C185.003 103.678 185.206 103.526 185.459 103.425C185.56 103.374 185.661 103.323 185.762 103.273C186.116 103.121 186.42 102.919 186.774 102.716C190.113 100.794 192.946 98.2139 195.121 95.2797L165.678 104.285Z" fill="white"/>
<defs>
<linearGradient id="paint0_linear_3104_45860" x1="0" y1="0" x2="347.063" y2="139.109" gradientUnits="userSpaceOnUse">
<stop stop-color="#00C2FF"/>
<stop offset="1" stop-color="#CC00FF"/>
</linearGradient>
</defs>
</svg>
