<svg width="176" height="143" viewBox="0 0 176 143" fill="none" xmlns="http://www.w3.org/2000/svg">
<path d="M3.74771 139.577L0.459397 126.728C0.257039 125.868 0.0546875 124.805 0.0546875 124.451C0.0546875 123.743 0.509988 123.54 1.8759 123.288C2.93828 123.085 3.54536 122.933 3.79831 122.933C4.50656 122.933 4.65833 123.288 4.91128 124.4C5.97366 129.206 6.78308 132.95 7.54193 137.301C7.54193 137.402 7.64312 137.453 7.6937 137.453C7.79488 137.453 7.84547 137.453 7.84547 137.301C8.6549 133.254 9.56552 128.954 10.4761 125.362C11.0326 123.136 11.0326 123.136 13.7644 123.136C16.4963 123.136 16.4963 123.136 17.0022 125.362C18.1151 130.067 18.8234 133.152 19.6834 137.301C19.734 137.402 19.7846 137.453 19.8858 137.453C19.9363 137.453 19.9869 137.453 20.0375 137.301C20.7458 133.102 21.707 128.701 22.6176 124.502C22.8706 123.439 22.9717 122.883 23.7306 122.883C24.1353 122.883 24.7424 123.035 25.653 123.186C27.1707 123.49 27.4236 123.743 27.4236 124.299C27.4236 124.603 27.2718 125.615 27.0189 126.576L23.7306 139.476C23.1235 141.854 23.1235 141.854 19.8858 141.854C16.6986 141.854 16.6986 141.854 16.2433 139.476L13.9162 129.257C13.9162 129.156 13.815 129.105 13.7644 129.105C13.6633 129.105 13.6127 129.156 13.6127 129.257L11.235 139.628C10.7291 142.006 10.7291 142.006 7.59252 142.006C4.3042 142.006 4.3042 142.006 3.74771 139.577Z" fill="white"/>
<path d="M31.4195 142.056C30.0535 141.955 29.75 141.904 29.75 140.943C29.75 140.69 29.8006 140.336 29.8006 139.881C29.9018 138.161 29.9524 137.807 30.8124 137.807C31.2171 137.807 32.3301 137.908 33.696 137.908C35.9725 137.908 38.7043 137.149 38.7043 135.227C38.7043 134.316 37.9961 133.355 36.529 133.355C35.8208 133.355 35.3149 133.507 34.7584 133.507C34.3031 133.507 34.0501 133.405 33.5442 132.545C33.1901 131.989 32.9877 131.635 32.9877 131.331C32.9877 130.876 33.3419 130.572 33.9489 129.915L36.529 127.132V127.082H32.1277C29.8512 127.082 29.8512 127.082 29.8512 125.008C29.8512 122.883 29.8512 122.883 32.0771 122.883H39.1596C41.335 122.883 41.2338 122.883 41.7903 124.35C42.0938 125.109 42.2962 125.665 42.2962 126.121C42.2962 126.475 42.1444 126.778 41.6385 127.234L38.8055 130.067C41.4868 130.37 43.2068 132.444 43.2068 135.176C43.2068 139.881 38.6538 142.157 33.443 142.157C32.9877 142.107 32.1783 142.107 31.4195 142.056Z" fill="white"/>
<path d="M47.3561 140.438C46.749 140.033 46.4961 139.578 46.4961 138.718V119.14C46.4961 116.863 46.4961 116.863 48.8738 116.863C51.2515 116.863 51.2515 116.863 51.2515 119.14V123.693C52.2633 123.238 53.8822 122.883 55.2987 122.883C59.5482 122.883 62.5836 125.818 62.9883 130.017C63.0895 131.433 63.0895 133.811 62.9883 135.227C62.6341 139.426 59.5482 142.36 54.7928 142.36C51.3021 142.31 48.5197 141.197 47.3561 140.438ZM54.641 137.757C56.9681 137.757 58.1823 136.391 58.334 134.367C58.4352 133.305 58.4352 132.04 58.334 130.826C58.1823 128.802 56.9681 127.436 54.641 127.436C53.4774 127.436 52.0609 127.791 51.3021 128.297V136.846C52.0609 137.403 53.4774 137.757 54.641 137.757Z" fill="white"/>
<path d="M66.6313 140.336C66.0748 139.931 65.7207 139.628 65.7207 139.324C65.7207 138.97 65.9231 138.667 66.5807 137.655C67.289 136.593 67.5419 136.34 67.8961 136.34C68.2502 136.34 68.5031 136.593 68.9584 136.846C70.2738 137.655 71.3361 138.161 73.4103 138.161C75.2315 138.161 76.041 137.402 76.041 136.441C76.041 135.682 75.4845 135.125 74.0174 134.822L71.3361 134.215C68.5537 133.608 66.2772 131.888 66.2772 128.802C66.2772 125.109 69.4643 122.883 73.3597 122.883C75.7374 122.883 77.7104 123.591 79.1775 124.603C79.734 125.008 79.9364 125.311 79.9364 125.564C79.9364 125.918 79.734 126.272 79.0763 127.284C78.3681 128.296 78.0645 128.65 77.6598 128.65C77.3563 128.65 77.1033 128.397 76.4457 128.094C75.788 127.689 74.6245 127.132 73.3091 127.132C71.5891 127.132 70.7797 127.79 70.7797 128.701C70.7797 129.459 71.3361 129.915 72.8538 130.269L75.2315 130.775C78.874 131.584 80.594 133.405 80.594 136.34C80.594 140.134 77.3563 142.36 73.3091 142.36C70.4255 142.309 68.1996 141.449 66.6313 140.336Z" fill="white"/>
<path d="M83.9316 135.785V121.417C83.9316 119.141 83.9316 119.141 86.3094 119.141C88.6871 119.141 88.6871 119.141 88.6871 121.417V123.188H92.9872C95.1625 123.188 95.1625 123.188 95.1625 125.363C95.1625 127.538 95.1625 127.538 92.9872 127.538H88.6871V135.329C88.6871 137.15 89.3447 137.909 90.9636 137.909C91.773 137.909 92.5825 137.707 93.1895 137.454C93.6954 137.252 94.0495 137.15 94.3025 137.15C94.859 137.15 95.0613 137.505 95.6178 138.871C96.0731 139.933 96.0731 140.135 96.0731 140.388C96.0731 140.844 95.719 141.096 94.9096 141.451C93.5437 142.058 91.9754 142.361 90.6095 142.361C86.6635 142.311 83.9316 140.135 83.9316 135.785Z" fill="white"/>
<path d="M98.4512 139.679V129.257C98.4512 125.362 100.829 122.883 104.623 122.883C105.888 122.883 107.254 123.035 108.266 123.338C109.227 123.642 109.834 123.793 109.834 124.451C109.834 124.805 109.733 125.159 109.429 126.222C109.075 127.486 108.873 127.942 108.266 127.942C107.962 127.942 107.608 127.841 107.203 127.739C106.697 127.588 105.837 127.486 105.23 127.486C103.864 127.486 103.257 128.144 103.257 129.51V139.729C103.257 142.006 103.257 142.006 100.879 142.006C98.5018 142.006 98.4512 142.006 98.4512 139.679Z" fill="white"/>
<path d="M111.25 135.125C111.149 133.81 111.149 131.635 111.25 130.421C111.654 126.07 114.842 122.883 119.749 122.883C124.707 122.883 127.641 126.019 127.641 130.825V131.736C127.641 133.861 127.185 134.164 125.314 134.164H115.702V134.67C115.752 136.744 117.422 138.11 119.85 138.11C121.519 138.11 122.531 137.807 123.543 137.402C124.15 137.149 124.555 136.947 124.959 136.947C125.415 136.947 125.668 137.301 126.224 138.515C126.629 139.426 126.73 139.78 126.73 140.033C126.73 140.437 126.477 140.64 125.516 141.095C124.049 141.753 122.025 142.36 119.85 142.36C114.892 142.309 111.604 139.324 111.25 135.125ZM123.239 130.927C123.442 128.397 121.874 126.829 119.496 126.829C117.169 126.829 115.752 128.448 115.651 130.775V130.876H123.239V130.927Z" fill="white"/>
<path d="M129.816 136.289C129.816 133.304 132.093 130.572 136.95 130.572C138.366 130.572 139.681 130.775 141.098 131.129V129.763C141.098 128.043 140.137 127.082 137.455 127.082C136.292 127.082 134.875 127.486 133.864 127.891C133.358 128.093 132.953 128.195 132.7 128.195C132.245 128.195 131.992 127.891 131.486 126.626C131.132 125.817 131.031 125.362 131.031 125.007C131.031 124.552 131.283 124.299 132.447 123.844C133.914 123.237 135.685 122.832 137.81 122.832C142.869 122.832 145.702 125.058 145.702 129.965V138.667C145.702 139.527 145.449 139.982 144.841 140.387C143.678 141.145 140.896 142.309 137.304 142.309C132.346 142.309 129.816 139.577 129.816 136.289ZM137.557 138.515C138.821 138.515 140.137 138.211 141.047 137.705V134.316C139.833 133.962 138.72 133.759 137.759 133.759C135.432 133.759 134.319 134.822 134.319 136.238C134.319 137.705 135.685 138.515 137.557 138.515Z" fill="white"/>
<path d="M149.648 139.678V127.689C149.648 125.716 149.75 125.21 150.913 124.552C152.127 123.793 154.505 122.832 157.136 122.832C159.513 122.832 161.183 123.49 162.498 124.754C164.117 123.591 166.039 122.832 168.265 122.832C172.97 122.832 175.044 125.564 175.044 129.864V139.678C175.044 141.955 175.044 141.955 172.667 141.955C170.289 141.955 170.289 141.955 170.289 139.678V130.522C170.289 128.447 169.48 127.436 167.507 127.436C166.394 127.436 165.382 127.942 164.724 128.498C164.775 129.307 164.825 129.813 164.825 130.724V139.678C164.825 141.955 164.825 141.955 162.448 141.955C160.07 141.955 160.07 141.955 160.07 139.678V130.471C160.07 128.346 159.109 127.436 157.186 127.436C156.174 127.436 155.062 127.942 154.505 128.296V139.678C154.505 141.955 154.505 141.955 152.127 141.955C149.648 142.005 149.648 142.005 149.648 139.678Z" fill="white"/>
<path d="M72.9538 25.9557C72.9538 26.2086 73.0043 26.5122 73.0043 26.7651C73.0043 26.8663 73.0043 27.0181 73.0549 27.1193C73.1055 27.3722 73.1055 27.6757 73.1561 27.9287C73.1561 28.0299 73.1561 28.131 73.2067 28.2322C73.2573 28.5864 73.3079 28.9911 73.3585 29.3452C73.3585 29.3452 73.3585 29.3452 73.3585 29.3958C73.4091 29.7499 73.5102 30.0535 73.5608 30.4076L82.1104 43.6114L75.1797 13.6119C73.7126 16.9508 72.9032 20.6438 72.9032 24.5392C72.9032 24.8933 72.9032 25.298 72.9032 25.6522C72.9538 25.7027 72.9538 25.8545 72.9538 25.9557Z" fill="white"/>
<path d="M101.081 30.4574V30.4068C101.183 30.0527 101.233 29.6985 101.284 29.3444C101.334 28.9903 101.385 28.5856 101.436 28.2314C101.436 28.1303 101.436 28.0797 101.486 27.9785C101.537 27.6749 101.537 27.422 101.587 27.1185C101.587 27.0173 101.587 26.8655 101.638 26.7643C101.638 26.5114 101.688 26.2078 101.688 25.9549C101.688 25.8537 101.688 25.7525 101.688 25.6008C101.688 25.2467 101.688 24.8419 101.688 24.4878C101.688 20.5924 100.879 16.8994 99.4626 13.5605L92.5318 43.6106L101.081 30.4574Z" fill="white"/>
<path d="M72.144 31.3688C72.0934 31.3688 72.0934 31.3182 72.0428 31.3182C71.7899 31.0652 71.4864 30.8123 71.2334 30.6099C70.9299 30.357 70.6769 30.1546 70.3734 29.9017C70.3228 29.8511 70.2216 29.8005 70.171 29.7499C69.9687 29.5981 69.7157 29.3958 69.5134 29.244C69.4122 29.1934 69.311 29.0922 69.2098 29.0417C69.0075 28.8899 68.7545 28.7381 68.5522 28.5864C68.451 28.5358 68.3498 28.4852 68.2486 28.384C67.9451 28.1816 67.591 27.9793 67.2874 27.7769C63.8979 25.8545 60.3061 24.691 56.6636 24.2357L79.176 45.2809L72.144 31.3688Z" fill="white"/>
<path d="M52.819 52.7164C53.1226 52.9187 53.4767 53.0705 53.8308 53.2728C53.932 53.3234 54.0332 53.374 54.1344 53.4246C54.3873 53.5258 54.5897 53.6775 54.8426 53.7787C54.9438 53.8293 55.045 53.8799 55.1462 53.9305C55.3991 54.0317 55.6521 54.1834 55.905 54.2846C56.0062 54.3352 56.0568 54.3352 56.1579 54.3858C56.5121 54.5376 56.8662 54.6893 57.2203 54.7905C57.5745 54.8917 57.9286 55.0435 58.2321 55.1446H58.2827L73.9149 54.2846L44.4718 45.2797C46.6471 48.2139 49.4801 50.7434 52.819 52.7164Z" fill="white"/>
<path d="M73.9652 57.6745L58.2824 56.8145C57.9283 56.9157 57.6248 57.0169 57.2706 57.1686C57.2706 57.1686 57.2706 57.1686 57.22 57.1686C56.8659 57.3204 56.5118 57.4216 56.1577 57.5733C56.0565 57.6239 56.0059 57.6239 55.9047 57.6745C55.6518 57.7757 55.3988 57.8769 55.1459 58.0287C55.0447 58.0792 54.9435 58.1298 54.7917 58.1804C54.5388 58.2816 54.3364 58.4334 54.0835 58.5345C53.9823 58.5851 53.8811 58.6357 53.7799 58.6863C53.4258 58.8381 53.1223 59.0404 52.7682 59.2428C49.3787 61.1652 46.5962 63.7453 44.4209 66.6794L73.9652 57.6745Z" fill="white"/>
<path d="M56.6132 87.7247C60.2557 87.32 63.8475 86.1564 67.1864 84.1834C67.49 83.981 67.8441 83.7787 68.1477 83.5763C68.2488 83.5258 68.35 83.4752 68.4512 83.374C68.6535 83.2222 68.9065 83.0704 69.1089 82.9187C69.21 82.8681 69.3112 82.7669 69.4124 82.7163C69.6653 82.5646 69.8677 82.3622 70.0701 82.2104C70.1206 82.1598 70.2218 82.1093 70.2724 82.0587C70.8795 81.6034 71.436 81.0975 71.9925 80.6422C71.9925 80.6422 71.9925 80.6422 72.043 80.6422L79.1256 66.6794L56.6132 87.7247Z" fill="white"/>
<path d="M101.688 86.056C101.688 85.8031 101.638 85.4995 101.638 85.2466C101.638 85.1454 101.638 84.9936 101.587 84.8924C101.537 84.5889 101.537 84.336 101.486 84.083C101.486 83.9818 101.486 83.8807 101.436 83.8301C101.385 83.476 101.334 83.0712 101.284 82.7171C101.233 82.363 101.132 82.0089 101.081 81.6547L92.5318 68.5015L99.4626 98.501C100.93 95.1621 101.688 91.4691 101.688 87.5737C101.688 87.2196 101.688 86.8148 101.688 86.4607C101.688 86.2584 101.688 86.1572 101.688 86.056Z" fill="white"/>
<path d="M73.5608 81.552C73.409 82.3108 73.2573 83.0191 73.1561 83.7779C73.1561 83.8791 73.1561 83.9297 73.1055 84.0308C73.0549 84.3344 73.0549 84.5873 73.0043 84.8909C73.0043 84.992 73.0043 85.1438 72.9538 85.245C72.9538 85.4979 72.9032 85.8015 72.9032 86.0544C72.9032 86.1556 72.9032 86.2568 72.9032 86.4085C72.9032 86.7627 72.9032 87.1674 72.9032 87.5215C72.9032 91.4169 73.7126 95.1099 75.1797 98.4489L82.1104 68.3987L73.5608 81.552Z" fill="white"/>
<path d="M121.823 59.2942C121.519 59.0918 121.165 58.9401 120.811 58.7377C120.71 58.6871 120.609 58.6365 120.508 58.5859C120.255 58.4847 120.052 58.333 119.799 58.2318C119.698 58.1812 119.597 58.1306 119.445 58.08C119.192 57.9788 118.939 57.8777 118.686 57.7259C118.585 57.6753 118.535 57.6753 118.433 57.6247C118.079 57.4729 117.725 57.3212 117.371 57.22C117.017 57.1188 116.713 56.9671 116.359 56.8659L100.676 57.7259L130.17 66.7308C127.944 63.746 125.162 61.2166 121.823 59.2942Z" fill="white"/>
<path d="M102.549 80.6923C102.852 80.9453 103.105 81.1982 103.409 81.4512C103.712 81.7041 103.965 81.9065 104.269 82.1594C104.319 82.21 104.42 82.2606 104.471 82.3112C104.673 82.463 104.926 82.6653 105.129 82.8171C105.23 82.8677 105.331 82.9689 105.432 83.0195C105.635 83.1712 105.888 83.323 106.09 83.4748C106.191 83.5254 106.292 83.5759 106.393 83.6771C106.697 83.8795 107.051 84.0818 107.355 84.2842C110.694 86.2066 114.336 87.3702 117.928 87.8255L95.4155 66.7802L102.549 80.6923Z" fill="white"/>
<path d="M117.978 24.2357C114.336 24.6404 110.744 25.8039 107.405 27.7769C107.101 27.9793 106.747 28.1816 106.444 28.384C106.342 28.4346 106.241 28.4852 106.14 28.5864C105.938 28.7381 105.685 28.8899 105.482 29.0417C105.381 29.0922 105.28 29.1934 105.179 29.244C104.926 29.3958 104.724 29.5476 104.521 29.7499C104.471 29.8005 104.369 29.8511 104.319 29.9017C104.015 30.1546 103.712 30.357 103.459 30.6099C103.155 30.8629 102.902 31.0652 102.649 31.3182C102.649 31.3182 102.649 31.3182 102.599 31.3688L95.5163 45.3315L117.978 24.2357Z" fill="white"/>
<path d="M135.634 28.9903L100.373 50.592V48.4672L98.5518 47.4048L134.926 27.6749C130.474 25.1455 125.415 23.9313 120.305 24.0831L98.5518 47.3543L95.4153 45.533L95.3141 45.4824L94.5047 45.0271L93.3411 44.3695L92.5317 43.9142L92.4305 43.8636L89.294 42.0424L98.6024 11.5369C96.2247 7.03443 92.5823 3.24022 88.181 0.660156L89.2434 41.9918L87.3716 40.9294L85.5503 41.9918L86.6127 0.660156C82.2114 3.24022 78.569 7.03443 76.1913 11.5369L85.4997 41.9918L82.3632 43.813L82.262 43.8636L81.4526 44.3189L80.289 44.9766L79.4796 45.4319L79.3784 45.4824L76.2419 47.3037L54.4884 23.9819C49.3788 23.7796 44.3199 25.0443 39.868 27.5232L76.1913 47.2531L74.3195 48.3155V50.4402L39.0586 28.7879C39.1092 33.8974 40.5763 38.9564 43.2575 43.3071L74.3195 50.4908V61.2158L43.2575 68.3995C40.5257 72.7502 39.0586 77.7585 39.0586 82.9187L74.3195 61.2664V63.3911L76.1407 64.4535L39.8174 84.1834C44.2693 86.7129 49.3283 87.927 54.4378 87.7247L76.1913 64.4535L79.3278 66.2747L79.429 66.3253L80.2384 66.7806L81.402 67.4383L82.2114 67.8936L82.3126 67.9442L85.4491 69.7654L76.1407 100.423C78.5184 104.925 82.1608 108.719 86.5621 111.299L85.4997 69.9678L87.3716 71.0301L89.1928 69.9678L88.1304 111.299C92.5317 108.719 96.1235 104.925 98.5518 100.423L89.2434 69.9172L92.3799 68.096L92.4811 68.0454L93.2905 67.5901L94.4541 66.9324L95.2635 66.4771L95.3647 66.4265L98.5012 64.6053L120.255 87.927C125.364 88.1294 130.474 86.8647 134.926 84.3352L98.5518 64.6053L100.424 63.5429V61.4181L135.685 83.0199C135.634 77.9103 134.167 72.902 131.486 68.6019L100.424 61.4181V50.6426L131.486 43.4589C134.116 39.1082 135.583 34.0998 135.634 28.9903Z" fill="white"/>
<path d="M100.676 54.2846L116.309 55.1446H116.359C116.713 55.0435 117.067 54.9423 117.371 54.7905C117.725 54.6387 118.079 54.5376 118.433 54.3858C118.535 54.3352 118.585 54.3352 118.686 54.2846C118.939 54.1834 119.192 54.0823 119.445 53.9305C119.546 53.8799 119.648 53.8293 119.749 53.7787C120.002 53.6775 120.204 53.5258 120.457 53.4246C120.558 53.374 120.659 53.3234 120.761 53.2728C121.115 53.1211 121.418 52.9187 121.772 52.7164C125.111 50.794 127.944 48.2139 130.12 45.2797L100.676 54.2846Z" fill="white"/>
</svg>
