<svg width="211" height="65" viewBox="0 0 211 65" fill="none" xmlns="http://www.w3.org/2000/svg">
<path d="M62.3692 38.7123L59.5205 27.3574C59.3685 26.631 59.1406 25.6752 59.1406 25.3694C59.1406 24.7194 59.5205 24.5665 60.698 24.3371C61.6475 24.1459 62.1413 24.0312 62.3692 24.0312C62.977 24.0312 63.1289 24.3753 63.3188 25.3311C64.2684 29.5749 64.9521 32.8628 65.5979 36.7242C65.5979 36.8389 65.6738 36.8389 65.7498 36.8389C65.8258 36.8389 65.9017 36.8389 65.9017 36.7242C66.6234 33.1686 67.3831 29.3455 68.1807 26.1722C68.6365 24.1842 68.6745 24.1842 71.0295 24.1842C73.3845 24.1842 73.4225 24.1842 73.8403 26.1722C74.8279 30.3013 75.3976 33.054 76.1573 36.7242C76.1953 36.8389 76.2333 36.8389 76.3093 36.8389C76.3852 36.8389 76.4232 36.8389 76.4612 36.7242C77.0689 33.0157 77.9046 29.1161 78.7022 25.4458C78.8922 24.5283 79.0061 24.0312 79.6518 24.0312C79.9937 24.0312 80.5254 24.1459 81.3231 24.2989C82.6525 24.5665 82.8425 24.7959 82.8425 25.2929C82.8425 25.5605 82.6905 26.4399 82.5006 27.3192L79.6518 38.7123C79.1201 40.8532 79.1201 40.8532 76.3093 40.8532C73.5744 40.8532 73.5744 40.8532 73.1566 38.7123L71.1435 29.5366C71.1435 29.4602 71.0675 29.4219 70.9915 29.4219C70.9156 29.4219 70.8776 29.4602 70.8396 29.5366L68.7505 38.7123C68.3327 40.8532 68.3327 40.8532 65.5979 40.8532C62.863 40.815 62.863 40.815 62.3692 38.7123Z" fill="black"/>
<path d="M86.3379 40.8522C85.1604 40.7375 84.8945 40.7375 84.8945 39.8581C84.8945 39.6287 84.9325 39.3229 84.9325 38.9023C85.0085 37.3731 85.0465 37.0672 85.8061 37.0672C86.186 37.0672 87.1356 37.1437 88.3131 37.1437C90.3262 37.1437 92.6432 36.4937 92.6432 34.7733C92.6432 33.9322 92.0355 33.0911 90.782 33.0911C90.1743 33.0911 89.7564 33.2058 89.2627 33.2058C88.8828 33.2058 88.6549 33.0911 88.1991 32.3647C87.8952 31.8677 87.7053 31.5618 87.7053 31.2942C87.7053 30.8737 88.0092 30.606 88.541 30.0326L90.744 27.5857V27.5475H86.9457C84.9705 27.5475 84.9705 27.5475 84.9705 25.6741C84.9705 23.8008 84.9705 23.8008 86.9077 23.8008H93.023C94.8842 23.8008 94.8083 23.8008 95.3021 25.1007C95.53 25.7888 95.7199 26.2476 95.7199 26.6682C95.7199 26.974 95.6059 27.2416 95.1501 27.6622L92.6812 30.1473C94.9982 30.4149 96.5175 32.2118 96.5175 34.6968C96.5175 38.8259 92.5672 40.8522 88.0852 40.8522C87.7433 40.9286 87.0216 40.9286 86.3379 40.8522Z" fill="black"/>
<path d="M100.2 39.4371C99.6684 39.0547 99.4785 38.6724 99.4785 37.9078V20.5888C99.4785 18.5625 99.4785 18.5625 101.53 18.5625C103.581 18.5625 103.581 18.5625 103.581 20.5888V24.6031C104.492 24.1826 105.86 23.8767 107.113 23.8767C110.798 23.8767 113.457 26.4765 113.76 30.185C113.874 31.4084 113.874 33.5494 113.76 34.7728C113.457 38.4813 110.798 41.081 106.657 41.081C103.619 41.1193 101.188 40.1252 100.2 39.4371ZM106.506 37.0667C108.519 37.0667 109.544 35.8433 109.696 34.0846C109.772 33.167 109.772 32.0583 109.696 30.9878C109.544 29.2292 108.519 28.0057 106.506 28.0057C105.48 28.0057 104.264 28.3116 103.619 28.7704V36.3403C104.264 36.7608 105.48 37.0667 106.506 37.0667Z" fill="black"/>
<path d="M116.913 39.3206C116.457 38.9766 116.115 38.7089 116.115 38.4031C116.115 38.0972 116.305 37.8296 116.875 36.9503C117.483 35.9945 117.711 35.8033 118.014 35.8033C118.318 35.8033 118.546 35.9945 118.964 36.2621C120.104 36.9885 121.053 37.409 122.8 37.409C124.396 37.409 125.079 36.7591 125.079 35.918C125.079 35.2681 124.624 34.7711 123.332 34.4652L121.015 33.93C118.622 33.3565 116.647 31.8654 116.647 29.1128C116.647 25.8248 119.42 23.875 122.8 23.875C124.851 23.875 126.561 24.4867 127.852 25.4043C128.346 25.7484 128.498 26.016 128.498 26.2454C128.498 26.5895 128.346 26.8953 127.738 27.7746C127.131 28.6922 126.827 28.9598 126.523 28.9598C126.257 28.9598 126.029 28.7687 125.497 28.4628C124.927 28.1187 123.902 27.6217 122.762 27.6217C121.243 27.6217 120.597 28.1952 120.597 28.9981C120.597 29.648 121.053 30.0685 122.421 30.3744L124.472 30.8332C127.662 31.5596 129.106 33.1271 129.106 35.7269C129.106 39.053 126.295 41.0411 122.8 41.0411C120.217 41.1175 118.28 40.3147 116.913 39.3206Z" fill="black"/>
<path d="M131.918 35.3481V22.6552C131.918 20.6289 131.918 20.6289 133.969 20.6289C136.02 20.6289 136.02 20.6289 136.02 22.6552V24.2227H139.743C141.642 24.2227 141.642 24.2227 141.642 26.1343C141.642 28.0459 141.642 28.0459 139.743 28.0459H136.02V34.9276C136.02 36.5333 136.59 37.2215 137.995 37.2215C138.679 37.2215 139.401 37.0303 139.933 36.8009C140.388 36.648 140.692 36.5333 140.92 36.5333C141.376 36.5333 141.566 36.8392 142.06 38.0244C142.439 38.9802 142.477 39.1713 142.477 39.3625C142.477 39.783 142.174 39.9742 141.49 40.28C140.312 40.8153 138.945 41.0829 137.767 41.0829C134.311 41.1211 131.918 39.1713 131.918 35.3481Z" fill="black"/>
<path d="M144.527 38.7862V29.5724C144.527 26.1315 146.616 23.9141 149.883 23.9141C150.985 23.9141 152.162 24.067 153.036 24.3346C153.871 24.6022 154.403 24.7169 154.403 25.3286C154.403 25.6345 154.327 25.9403 154.061 26.8961C153.757 28.0431 153.567 28.3872 153.074 28.3872C152.808 28.3872 152.504 28.3107 152.124 28.2343C151.668 28.1196 150.947 28.0049 150.415 28.0049C149.237 28.0049 148.706 28.5783 148.706 29.8018V38.8245C148.706 40.8507 148.706 40.8507 146.654 40.8507C144.527 40.8125 144.527 40.8125 144.527 38.7862Z" fill="black"/>
<path d="M155.582 34.7337C155.506 33.5867 155.468 31.6369 155.582 30.5664C155.924 26.705 158.696 23.9141 162.951 23.9141C167.281 23.9141 169.788 26.705 169.788 30.9105V31.7516C169.788 33.6249 169.408 33.8926 167.774 33.8926H159.456V34.3513C159.532 36.1482 160.975 37.3717 163.064 37.3717C164.508 37.3717 165.419 37.104 166.255 36.7217C166.787 36.4923 167.167 36.3012 167.509 36.3012C167.888 36.3012 168.116 36.607 168.572 37.6775C168.914 38.4804 168.99 38.7862 168.99 39.0156C168.99 39.3597 168.8 39.5891 167.926 39.9714C166.635 40.5449 164.888 41.0801 163.026 41.0801C158.772 41.1184 155.886 38.4804 155.582 34.7337ZM166.027 31.0252C166.179 28.7695 164.85 27.4314 162.761 27.4314C160.747 27.4314 159.532 28.846 159.456 30.9487V31.0634H166.027V31.0252Z" fill="black"/>
<path d="M171.686 35.7659C171.686 33.1279 173.661 30.7193 177.839 30.7193C179.054 30.7193 180.194 30.8722 181.409 31.2163V30.0311C181.409 28.5019 180.574 27.6608 178.257 27.6608C177.231 27.6608 176.016 28.0049 175.142 28.3489C174.686 28.5401 174.344 28.6166 174.117 28.6166C173.699 28.6166 173.509 28.3489 173.053 27.2402C172.749 26.5138 172.673 26.0933 172.673 25.8257C172.673 25.4051 172.863 25.2139 173.889 24.8316C175.18 24.2964 176.699 23.9141 178.523 23.9141C182.891 23.9141 185.36 25.8639 185.36 30.2223V37.9069C185.36 38.6715 185.17 39.0538 184.638 39.4362C183.65 40.1243 181.219 41.1566 178.105 41.1566C173.889 41.1184 171.686 38.6715 171.686 35.7659ZM178.447 37.754C179.548 37.754 180.65 37.4863 181.485 37.0658V34.0455C180.422 33.7014 179.472 33.5485 178.637 33.5485C176.585 33.5485 175.636 34.466 175.636 35.7277C175.636 36.9893 176.775 37.754 178.447 37.754Z" fill="black"/>
<path d="M188.893 38.7854V28.1952C188.893 26.4365 188.969 26.016 189.956 25.4043C191.02 24.7543 193.071 23.875 195.35 23.875C197.401 23.875 198.844 24.4485 199.984 25.5954C201.389 24.6014 203.023 23.875 204.998 23.875C209.062 23.875 210.885 26.3218 210.885 30.0685V38.7472C210.885 40.7734 210.885 40.7734 208.834 40.7734C206.783 40.7734 206.783 40.7734 206.783 38.7472V30.7185C206.783 28.9216 206.061 27.9658 204.352 27.9658C203.402 27.9658 202.529 28.3863 201.921 28.8834C201.997 29.5715 201.997 30.0303 201.997 30.8714V38.7854C201.997 40.8117 201.997 40.8117 199.908 40.8117C197.857 40.8117 197.857 40.8117 197.857 38.7854V30.642C197.857 28.7687 197.021 27.9276 195.35 27.9276C194.476 27.9276 193.527 28.3863 193.033 28.6922V38.7472C193.033 40.7734 193.033 40.7734 190.944 40.7734C188.893 40.8117 188.893 40.8117 188.893 38.7854Z" fill="black"/>
<path d="M19.5236 15.0459C19.5236 15.1989 19.5236 15.3518 19.5616 15.5047C19.5616 15.5812 19.5616 15.6577 19.5616 15.6959C19.5616 15.8488 19.5996 16.0017 19.5996 16.1547C19.5996 16.1929 19.5996 16.2694 19.6376 16.3076C19.6756 16.537 19.7135 16.7281 19.7515 16.9575C19.7895 17.1487 19.8275 17.3399 19.8655 17.531L24.8034 25.1774L20.8151 7.85837C19.9794 9.80819 19.5236 11.9492 19.5236 14.1666C19.5236 14.396 19.5236 14.5872 19.5236 14.8166C19.5236 14.9313 19.5236 14.9695 19.5236 15.0459Z" fill="#1D1D1B"/>
<path d="M35.7047 17.6457C35.7427 17.4163 35.7807 17.1869 35.8186 16.9958C35.8566 16.7664 35.8946 16.5752 35.9326 16.3458C35.9326 16.3076 35.9326 16.2311 35.9326 16.1929C35.9706 16.04 35.9706 15.887 35.9706 15.6959C35.9706 15.6194 35.9706 15.543 35.9706 15.5047C35.9706 15.3518 36.0086 15.1989 36.0086 15.0459C36.0086 14.9695 36.0086 14.9313 36.0086 14.8548C36.0086 14.6254 36.0086 14.4342 36.0086 14.2048C36.0086 11.9492 35.5527 9.80819 34.7171 7.8966L30.7668 25.2538L35.7047 17.6457Z" fill="#1D1D1B"/>
<path d="M19.0678 18.181L19.0298 18.1427C18.8779 17.9898 18.726 17.8751 18.5361 17.7222C18.3841 17.5692 18.1942 17.4546 18.0423 17.3016C18.0043 17.2634 17.9663 17.2252 17.9283 17.2252C17.8144 17.1105 17.6624 17.034 17.5485 16.9193C17.5105 16.8811 17.4345 16.8428 17.3965 16.8046C17.2826 16.7281 17.1307 16.6135 17.0167 16.537C16.9787 16.4988 16.9028 16.4605 16.8648 16.4223C16.6748 16.3076 16.4849 16.1929 16.295 16.0782C14.3578 14.9695 12.3067 14.2813 10.2176 14.0519L23.1701 26.2096L19.0678 18.181Z" fill="#1D1D1B"/>
<path d="M7.97658 30.5298C8.1665 30.6445 8.35642 30.7592 8.54633 30.8357C8.6223 30.8739 8.66028 30.9121 8.73625 30.9121C8.88819 30.9886 9.00214 31.0651 9.15407 31.1033C9.23004 31.1415 9.26803 31.1798 9.34399 31.1798C9.49593 31.2562 9.64786 31.2945 9.7998 31.3709C9.83778 31.4092 9.91375 31.4092 9.95173 31.4474C10.1416 31.5238 10.3696 31.6003 10.5595 31.6768C10.7494 31.7532 10.9393 31.8297 11.1672 31.8679C11.1672 31.8679 11.1672 31.8679 11.2052 31.8679L20.2073 31.3709L3.19063 26.2096C4.44409 27.9301 6.03941 29.3829 7.97658 30.5298Z" fill="#1D1D1B"/>
<path d="M20.1314 33.3972L11.1292 32.9002C10.9393 32.9767 10.7494 33.0149 10.5595 33.0914C10.2936 33.206 10.1037 33.2825 9.91375 33.359C9.87576 33.3972 9.7998 33.3972 9.76181 33.4354C9.60988 33.5119 9.45794 33.5501 9.30601 33.6266C9.23004 33.6648 9.19206 33.7031 9.11609 33.7031C8.96415 33.7795 8.8502 33.8177 8.69827 33.8942C8.6223 33.9324 8.58432 33.9707 8.50835 33.9707C8.31843 34.0854 8.12851 34.1618 7.93859 34.2765C6.00143 35.3853 4.40611 36.8763 3.15265 38.5585L20.1314 33.3972Z" fill="#1D1D1B"/>
<path d="M10.1796 50.7544C12.2687 50.525 14.3199 49.8369 16.257 48.7281C16.4469 48.6135 16.6369 48.4988 16.8268 48.3841C16.8648 48.3458 16.9407 48.3076 16.9787 48.2694C17.0927 48.1929 17.2446 48.1164 17.3586 48.0017C17.3965 47.9635 17.4725 47.9253 17.5105 47.8871C17.6244 47.8106 17.7764 47.6959 17.8903 47.5812C17.9283 47.543 17.9663 47.5047 18.0043 47.5047C18.3461 47.2371 18.688 46.9695 18.9919 46.6636L23.0561 38.5967L10.1796 50.7544Z" fill="#1D1D1B"/>
<path d="M36.0465 49.7986C36.0465 49.6457 36.0465 49.4928 36.0086 49.3399C36.0086 49.2634 36.0086 49.1869 36.0086 49.1487C36.0086 48.9958 35.9706 48.8428 35.9706 48.6517C35.9706 48.6135 35.9706 48.537 35.9326 48.4988C35.8946 48.2694 35.8566 48.0782 35.8186 47.8488C35.7806 47.6577 35.7427 47.4283 35.7047 47.2371L30.8048 39.629L34.7931 56.9862C35.6287 55.0364 36.0845 52.8954 36.0845 50.678C36.0845 50.4486 36.0845 50.2574 36.0845 50.028C36.0465 49.9133 36.0465 49.8369 36.0465 49.7986Z" fill="#1D1D1B"/>
<path d="M19.8655 47.1989C19.7895 47.6194 19.7135 48.04 19.6376 48.4988C19.6376 48.537 19.6376 48.6134 19.6376 48.6517C19.5996 48.8046 19.5996 48.9575 19.5996 49.1487C19.5996 49.2252 19.5996 49.3016 19.5996 49.3399C19.5996 49.4928 19.5616 49.6457 19.5616 49.7986C19.5616 49.8751 19.5616 49.9133 19.5616 49.9898C19.5616 50.2192 19.5616 50.4103 19.5616 50.6397C19.5616 52.8954 20.0174 55.0364 20.8531 56.948L24.8413 39.5908L19.8655 47.1989Z" fill="#1D1D1B"/>
<path d="M47.5936 34.3148C47.4037 34.2001 47.2137 34.0854 47.0238 34.0089C46.9479 33.9707 46.9099 33.9324 46.8339 33.9324C46.682 33.856 46.568 33.7795 46.4161 33.7413C46.3401 33.7031 46.3021 33.6648 46.2262 33.6648C46.0742 33.5884 45.9223 33.5501 45.7704 33.4737C45.7324 33.4354 45.6564 33.4354 45.6184 33.3972C45.4285 33.3207 45.2006 33.2443 45.0107 33.1678C44.8208 33.0913 44.6309 33.0149 44.4409 32.9767L35.4388 33.4737L52.3795 38.6732C51.1261 36.9145 49.5308 35.4235 47.5936 34.3148Z" fill="#1D1D1B"/>
<path d="M36.5403 46.7019C36.6923 46.8548 36.8822 47.0077 37.0341 47.1224C37.186 47.2753 37.376 47.39 37.5279 47.543C37.5659 47.5812 37.6039 47.6194 37.6418 47.6194C37.7558 47.7341 37.9077 47.8106 38.0217 47.9253C38.0597 47.9635 38.1356 48.0017 38.1736 48.04C38.2876 48.1164 38.4395 48.2311 38.5535 48.3076C38.5914 48.3458 38.6674 48.3841 38.7054 48.4223C38.8953 48.537 39.0852 48.6517 39.2752 48.7664C41.2123 49.8751 43.2634 50.5633 45.3525 50.7927L32.4761 38.635L36.5403 46.7019Z" fill="#1D1D1B"/>
<path d="M45.4285 14.0519C43.3394 14.2813 41.2883 14.9695 39.3511 16.0782C39.1612 16.1929 38.9713 16.3076 38.7814 16.4223C38.7434 16.4605 38.6674 16.4988 38.6294 16.537C38.5155 16.6135 38.3635 16.6899 38.2496 16.8046C38.1736 16.8428 38.1356 16.8811 38.0597 16.9193C37.9457 16.9958 37.7938 17.1105 37.6798 17.1869C37.6418 17.2252 37.6039 17.2634 37.5659 17.2634C37.414 17.3781 37.224 17.531 37.0721 17.6839C36.9202 17.8369 36.7682 17.9516 36.6163 18.1045L32.4761 26.2479L45.4285 14.0519Z" fill="#1D1D1B"/>
<path d="M55.5322 16.8046L35.2869 29.3064V28.083L34.2233 27.4713L55.1144 16.0782C52.5695 14.6254 49.6447 13.899 46.72 14.0137L34.1853 27.433L32.4001 26.4008L32.3241 26.3626L31.8683 26.0949L31.2226 25.7126L30.7668 25.445L30.7288 25.4068L28.9056 24.3745L34.2233 6.71142C32.8179 4.11166 30.7668 1.93245 28.2219 0.441406L28.8296 24.3363L27.7661 23.7246L26.7025 24.3363L27.3103 0.441406C24.8034 1.93245 22.7522 4.11166 21.3468 6.71142L26.7025 24.3363L24.9173 25.3685L24.8413 25.4068L24.3855 25.6744L23.7398 26.0567L23.284 26.3243L23.208 26.4008L21.3848 27.4713L8.88819 13.9755C5.96344 13.8608 3.0387 14.5872 0.493788 16.04L21.3468 27.4713L20.2833 28.083V29.3064L0.0379837 16.7664C0.0759674 19.7485 0.911609 22.6541 2.46894 25.1774L20.2833 29.3446V35.5382L2.43096 39.7054C0.873625 42.2287 0.0379837 45.1344 0 48.0782L20.2453 35.5764V36.7998L21.3089 37.4115L0.493788 48.8046C3.0387 50.2574 5.96344 50.9838 8.88819 50.8691L21.3848 37.4115L23.208 38.4438L23.246 38.482L23.7018 38.7497L24.3476 39.132L24.8034 39.3996L24.8413 39.4378L26.6646 40.4701L21.3468 58.1332C22.7143 60.7329 24.8034 62.9121 27.3483 64.4414L26.7405 40.5465L27.8041 41.1583L28.8676 40.5465L28.2599 64.4414C30.8048 62.9504 32.8559 60.7712 34.2613 58.1332L28.9056 40.5083L30.7288 39.4761L30.7668 39.4378L31.2226 39.1702L31.8683 38.7879L32.3241 38.5203L32.4001 38.482L34.2233 37.4498L46.72 50.9074C49.6827 51.0221 52.5695 50.2957 55.1523 48.8428L34.2233 37.3733L35.2869 36.7616V35.5382L55.5322 48.0017C55.4942 45.0579 54.6586 42.1523 53.1012 39.6672L35.2489 35.5V29.3064L53.1012 25.1391C54.6586 22.6541 55.4942 19.7867 55.5322 16.8046Z" fill="#1D1D1B"/>
<path d="M35.4388 31.4474L44.4409 31.9444C44.4409 31.9444 44.4409 31.9444 44.4789 31.9444C44.6688 31.8679 44.8588 31.8297 45.0867 31.7532C45.2766 31.6768 45.5045 31.6003 45.6944 31.5238C45.7324 31.4856 45.8083 31.4856 45.8463 31.4474C45.9983 31.3709 46.1502 31.3327 46.3021 31.2562C46.3781 31.218 46.4161 31.1798 46.4921 31.1798C46.644 31.1033 46.7579 31.0268 46.9099 30.9886C46.9858 30.9504 47.0238 30.9121 47.0998 30.9121C47.2897 30.7974 47.4796 30.721 47.6696 30.6063C49.6067 29.4976 51.202 28.0065 52.4555 26.3243L35.4388 31.4474Z" fill="#1D1D1B"/>
</svg>
