<svg width="97" height="112" viewBox="0 0 97 112" fill="none" xmlns="http://www.w3.org/2000/svg">
<path d="M33.9538 25.9557C33.9538 26.2086 34.0043 26.5122 34.0043 26.7651C34.0043 26.8663 34.0043 27.0181 34.0549 27.1193C34.1055 27.3722 34.1055 27.6757 34.1561 27.9287C34.1561 28.0299 34.1561 28.131 34.2067 28.2322C34.2573 28.5864 34.3079 28.9911 34.3585 29.3452C34.3585 29.3452 34.3585 29.3452 34.3585 29.3958C34.4091 29.7499 34.5102 30.0535 34.5608 30.4076L43.1104 43.6114L36.1797 13.6119C34.7126 16.9508 33.9032 20.6438 33.9032 24.5392C33.9032 24.8933 33.9032 25.298 33.9032 25.6522C33.9537 25.7027 33.9538 25.8545 33.9538 25.9557Z" fill="#1D1D1B"/>
<path d="M62.0814 30.4574V30.4068C62.1826 30.0527 62.2332 29.6985 62.2838 29.3444C62.3344 28.9903 62.3849 28.5856 62.4355 28.2314C62.4355 28.1303 62.4355 28.0797 62.4861 27.9785C62.5367 27.6749 62.5367 27.422 62.5873 27.1185C62.5873 27.0173 62.5873 26.8655 62.6379 26.7643C62.6379 26.5114 62.6885 26.2078 62.6885 25.9549C62.6885 25.8537 62.6885 25.7525 62.6885 25.6008C62.6885 25.2466 62.6885 24.8419 62.6885 24.4878C62.6885 20.5924 61.8791 16.8994 60.4626 13.5605L53.5318 43.6106L62.0814 30.4574Z" fill="#1D1D1B"/>
<path d="M33.144 31.3688C33.0934 31.3688 33.0934 31.3182 33.0428 31.3182C32.7899 31.0652 32.4864 30.8123 32.2334 30.6099C31.9299 30.357 31.6769 30.1546 31.3734 29.9017C31.3228 29.8511 31.2216 29.8005 31.171 29.7499C30.9687 29.5981 30.7157 29.3958 30.5134 29.244C30.4122 29.1934 30.311 29.0922 30.2098 29.0417C30.0075 28.8899 29.7545 28.7381 29.5522 28.5864C29.451 28.5358 29.3498 28.4852 29.2486 28.384C28.9451 28.1816 28.591 27.9793 28.2874 27.7769C24.8979 25.8545 21.3061 24.691 17.6636 24.2357L40.176 45.2809L33.144 31.3688Z" fill="#1D1D1B"/>
<path d="M13.819 52.7164C14.1226 52.9187 14.4767 53.0705 14.8308 53.2728C14.932 53.3234 15.0332 53.374 15.1344 53.4246C15.3873 53.5258 15.5897 53.6775 15.8426 53.7787C15.9438 53.8293 16.045 53.8799 16.1462 53.9305C16.3991 54.0317 16.6521 54.1834 16.905 54.2846C17.0062 54.3352 17.0568 54.3352 17.1579 54.3858C17.5121 54.5376 17.8662 54.6893 18.2203 54.7905C18.5745 54.8917 18.9286 55.0435 19.2321 55.1446H19.2827L34.9149 54.2846L5.47177 45.2797C7.64712 48.2139 10.4801 50.7434 13.819 52.7164Z" fill="#1D1D1B"/>
<path d="M34.9652 57.6745L19.2824 56.8145C18.9283 56.9157 18.6248 57.0169 18.2706 57.1686C18.2706 57.1686 18.2706 57.1686 18.22 57.1686C17.8659 57.3204 17.5118 57.4216 17.1577 57.5733C17.0565 57.6239 17.0059 57.6239 16.9047 57.6745C16.6518 57.7757 16.3988 57.8769 16.1459 58.0287C16.0447 58.0792 15.9435 58.1298 15.7917 58.1804C15.5388 58.2816 15.3364 58.4334 15.0835 58.5345C14.9823 58.5851 14.8811 58.6357 14.7799 58.6863C14.4258 58.8381 14.1223 59.0404 13.7682 59.2428C10.3787 61.1652 7.59623 63.7453 5.42088 66.6794L34.9652 57.6745Z" fill="#1D1D1B"/>
<path d="M17.6132 87.7247C21.2557 87.32 24.8475 86.1564 28.1864 84.1834C28.49 83.9811 28.8441 83.7787 29.1477 83.5763C29.2488 83.5258 29.35 83.4752 29.4512 83.374C29.6535 83.2222 29.9065 83.0704 30.1089 82.9187C30.21 82.8681 30.3112 82.7669 30.4124 82.7163C30.6653 82.5646 30.8677 82.3622 31.0701 82.2104C31.1206 82.1598 31.2218 82.1093 31.2724 82.0587C31.8795 81.6034 32.436 81.0975 32.9925 80.6422C32.9925 80.6422 32.9925 80.6422 33.043 80.6422L40.1256 66.6794L17.6132 87.7247Z" fill="#1D1D1B"/>
<path d="M62.6885 86.056C62.6885 85.8031 62.6379 85.4995 62.6379 85.2466C62.6379 85.1454 62.6379 84.9936 62.5873 84.8924C62.5367 84.5889 62.5367 84.336 62.4861 84.083C62.4861 83.9819 62.4861 83.8807 62.4355 83.8301C62.3849 83.476 62.3344 83.0712 62.2838 82.7171C62.2332 82.363 62.132 82.0089 62.0814 81.6547L53.5318 68.5015L60.4626 98.501C61.9297 95.1621 62.6885 91.4691 62.6885 87.5737C62.6885 87.2196 62.6885 86.8148 62.6885 86.4607C62.6885 86.2584 62.6885 86.1572 62.6885 86.056Z" fill="#1D1D1B"/>
<path d="M34.5608 81.552C34.409 82.3108 34.2573 83.0191 34.1561 83.7779C34.1561 83.8791 34.1561 83.9297 34.1055 84.0308C34.0549 84.3344 34.0549 84.5873 34.0043 84.8909C34.0043 84.992 34.0043 85.1438 33.9538 85.245C33.9538 85.4979 33.9032 85.8015 33.9032 86.0544C33.9032 86.1556 33.9032 86.2568 33.9032 86.4085C33.9032 86.7627 33.9032 87.1674 33.9032 87.5215C33.9032 91.4169 34.7126 95.1099 36.1797 98.4489L43.1104 68.3987L34.5608 81.552Z" fill="#1D1D1B"/>
<path d="M82.8229 59.2942C82.5194 59.0918 82.1652 58.9401 81.8111 58.7377C81.7099 58.6871 81.6088 58.6365 81.5076 58.5859C81.2546 58.4847 81.0523 58.333 80.7993 58.2318C80.6981 58.1812 80.597 58.1306 80.4452 58.08C80.1923 57.9788 79.9393 57.8777 79.6864 57.7259C79.5852 57.6753 79.5346 57.6753 79.4334 57.6247C79.0793 57.4729 78.7252 57.3212 78.371 57.22C78.0169 57.1188 77.7134 56.9671 77.3592 56.8659L61.6765 57.7259L91.1702 66.7308C88.9442 63.746 86.1618 61.2166 82.8229 59.2942Z" fill="#1D1D1B"/>
<path d="M63.5486 80.6923C63.8521 80.9453 64.1051 81.1982 64.4086 81.4512C64.7122 81.7041 64.9651 81.9065 65.2686 82.1594C65.3192 82.21 65.4204 82.2606 65.471 82.3112C65.6734 82.463 65.9263 82.6653 66.1287 82.8171C66.2298 82.8677 66.331 82.9689 66.4322 83.0195C66.6346 83.1712 66.8875 83.323 67.0899 83.4748C67.1911 83.5254 67.2922 83.5759 67.3934 83.6771C67.6969 83.8795 68.0511 84.0818 68.3546 84.2842C71.6935 86.2066 75.336 87.3702 78.9278 87.8255L56.4155 66.7802L63.5486 80.6923Z" fill="#1D1D1B"/>
<path d="M78.978 24.2357C75.3356 24.6404 71.7437 25.8039 68.4048 27.7769C68.1013 27.9793 67.7471 28.1816 67.4436 28.384C67.3424 28.4346 67.2412 28.4852 67.1401 28.5864C66.9377 28.7381 66.6848 28.8899 66.4824 29.0417C66.3812 29.0922 66.28 29.1934 66.1789 29.244C65.9259 29.3958 65.7236 29.5476 65.5212 29.7499C65.4706 29.8005 65.3694 29.8511 65.3189 29.9017C65.0153 30.1546 64.7118 30.357 64.4588 30.6099C64.1553 30.8629 63.9023 31.0652 63.6494 31.3182C63.6494 31.3182 63.6494 31.3182 63.5988 31.3688L56.5163 45.3315L78.978 24.2357Z" fill="#1D1D1B"/>
<path d="M96.6339 28.9903L61.373 50.592V48.4672L59.5518 47.4048L95.9257 27.6749C91.4738 25.1455 86.4148 23.9313 81.3053 24.0831L59.5518 47.3543L56.4153 45.533L56.3141 45.4824L55.5047 45.0271L54.3411 44.3695L53.5317 43.9142L53.4305 43.8636L50.294 42.0424L59.6024 11.5369C57.2247 7.03443 53.5823 3.24022 49.181 0.660156L50.2434 41.9918L48.3716 40.9294L46.5503 41.9918L47.6127 0.660156C43.2114 3.24022 39.569 7.03443 37.1913 11.5369L46.4997 41.9918L43.3632 43.813L43.262 43.8636L42.4526 44.3189L41.289 44.9766L40.4796 45.4319L40.3784 45.4824L37.2419 47.3037L15.4884 23.9819C10.3788 23.7796 5.31989 25.0443 0.868013 27.5232L37.1913 47.2531L35.3195 48.3155V50.4402L0.0585938 28.7879C0.109183 33.8974 1.57627 38.9564 4.25752 43.3071L35.3195 50.4908V61.2158L4.25752 68.3995C1.52568 72.7502 0.0585938 77.7585 0.0585938 82.9187L35.3195 61.2664V63.3911L37.1407 64.4535L0.817436 84.1834C5.26931 86.7129 10.3283 87.927 15.4378 87.7247L37.1913 64.4535L40.3278 66.2747L40.429 66.3253L41.2384 66.7806L42.402 67.4383L43.2114 67.8936L43.3126 67.9442L46.4491 69.7654L37.1407 100.423C39.5184 104.925 43.1608 108.719 47.5621 111.299L46.4997 69.9678L48.3716 71.0301L50.1928 69.9678L49.1304 111.299C53.5317 108.719 57.1235 104.925 59.5518 100.423L50.2434 69.9172L53.3799 68.096L53.4811 68.0454L54.2905 67.5901L55.4541 66.9324L56.2635 66.4771L56.3647 66.4265L59.5012 64.6053L81.2547 87.927C86.3643 88.1294 91.4738 86.8647 95.9257 84.3352L59.5518 64.6053L61.4236 63.5429V61.4181L96.6845 83.0199C96.6339 77.9103 95.1668 72.902 92.4856 68.6019L61.4236 61.4181V50.6426L92.4856 43.4589C95.1162 39.1082 96.5833 34.0998 96.6339 28.9903Z" fill="#1D1D1B"/>
<path d="M61.6765 54.2846L77.3086 55.1446H77.3592C77.7134 55.0435 78.0675 54.9423 78.371 54.7905C78.7252 54.6387 79.0793 54.5376 79.4334 54.3858C79.5346 54.3352 79.5852 54.3352 79.6864 54.2846C79.9393 54.1834 80.1923 54.0823 80.4452 53.9305C80.5464 53.8799 80.6476 53.8293 80.7487 53.7787C81.0017 53.6775 81.204 53.5258 81.457 53.4246C81.5582 53.374 81.6594 53.3234 81.7605 53.2728C82.1147 53.1211 82.4182 52.9187 82.7723 52.7164C86.1112 50.794 88.9442 48.2139 91.1196 45.2797L61.6765 54.2846Z" fill="#1D1D1B"/>
</svg>
