<svg width="306" height="243" viewBox="0 0 306 243" fill="none" xmlns="http://www.w3.org/2000/svg">
<rect width="306" height="241.557" transform="translate(0 0.882812)" fill="url(#paint0_linear_3104_45876)"/>
<path d="M136.462 86.8692C136.462 87.1751 136.462 87.4809 136.538 87.7868C136.538 87.9397 136.538 88.0927 136.538 88.1691C136.538 88.475 136.615 88.7808 136.615 89.0867C136.615 89.1631 136.615 89.3161 136.691 89.3925C136.768 89.8513 136.844 90.2336 136.92 90.6924C136.997 91.0747 137.073 91.4571 137.15 91.8394L147.09 107.132L139.061 72.4941C137.379 76.3937 136.462 80.6757 136.462 85.1106C136.462 85.5694 136.462 85.9517 136.462 86.4105C136.462 86.6398 136.462 86.7163 136.462 86.8692Z" fill="white"/>
<path d="M169.035 92.0688C169.112 91.61 169.188 91.1512 169.265 90.7689C169.341 90.3101 169.417 89.9278 169.494 89.469C169.494 89.3925 169.494 89.2396 169.494 89.1631C169.57 88.8573 169.57 88.5514 169.57 88.1691C169.57 88.0162 169.57 87.8633 169.57 87.7868C169.57 87.4809 169.647 87.1751 169.647 86.8692C169.647 86.7163 169.647 86.6398 169.647 86.4869C169.647 86.0281 169.647 85.6458 169.647 85.187C169.647 80.6757 168.729 76.3937 167.047 72.5706L159.095 107.285L169.035 92.0688Z" fill="white"/>
<path d="M135.544 93.1393L135.468 93.0628C135.162 92.7569 134.856 92.5275 134.474 92.2217C134.168 91.9158 133.785 91.6864 133.48 91.3806C133.403 91.3041 133.327 91.2277 133.25 91.2277C133.021 90.9983 132.715 90.8453 132.486 90.616C132.409 90.5395 132.256 90.463 132.18 90.3866C131.95 90.2336 131.644 90.0042 131.415 89.8513C131.339 89.7749 131.186 89.6984 131.109 89.6219C130.727 89.3925 130.345 89.1631 129.962 88.9338C126.063 86.7163 121.934 85.34 117.728 84.8812L143.802 109.197L135.544 93.1393Z" fill="white"/>
<path d="M113.217 117.837C113.599 118.066 113.981 118.296 114.364 118.449C114.517 118.525 114.593 118.602 114.746 118.602C115.052 118.755 115.281 118.907 115.587 118.984C115.74 119.06 115.817 119.137 115.969 119.137C116.275 119.29 116.581 119.366 116.887 119.519C116.963 119.596 117.116 119.596 117.193 119.672C117.575 119.825 118.034 119.978 118.416 120.131C118.799 120.284 119.181 120.437 119.64 120.513C119.64 120.513 119.64 120.513 119.716 120.513L137.838 119.519L103.582 109.197C106.106 112.637 109.317 115.543 113.217 117.837Z" fill="white"/>
<path d="M137.685 123.572L119.563 122.578C119.181 122.731 118.799 122.807 118.416 122.96C117.881 123.189 117.499 123.342 117.116 123.495C117.04 123.572 116.887 123.572 116.811 123.648C116.505 123.801 116.199 123.878 115.893 124.031C115.74 124.107 115.664 124.183 115.511 124.183C115.205 124.336 114.975 124.413 114.67 124.566C114.517 124.642 114.44 124.719 114.287 124.719C113.905 124.948 113.523 125.101 113.14 125.33C109.241 127.548 106.029 130.53 103.506 133.894L137.685 123.572Z" fill="white"/>
<path d="M117.652 158.286C121.857 157.827 125.986 156.451 129.886 154.234C130.268 154.004 130.65 153.775 131.033 153.545C131.109 153.469 131.262 153.393 131.339 153.316C131.568 153.163 131.874 153.01 132.103 152.781C132.18 152.704 132.333 152.628 132.409 152.551C132.639 152.399 132.944 152.169 133.174 151.94C133.25 151.863 133.327 151.787 133.403 151.787C134.091 151.252 134.779 150.716 135.391 150.105L143.573 133.971L117.652 158.286Z" fill="white"/>
<path d="M169.723 156.375C169.723 156.069 169.723 155.763 169.647 155.457C169.647 155.304 169.647 155.151 169.647 155.075C169.647 154.769 169.57 154.463 169.57 154.081C169.57 154.004 169.57 153.851 169.494 153.775C169.417 153.316 169.341 152.934 169.265 152.475C169.188 152.093 169.112 151.634 169.035 151.252L159.171 136.035L167.2 170.75C168.882 166.85 169.8 162.568 169.8 158.133C169.8 157.675 169.8 157.292 169.8 156.833C169.723 156.604 169.723 156.451 169.723 156.375Z" fill="white"/>
<path d="M137.15 151.175C136.997 152.016 136.844 152.857 136.691 153.775C136.691 153.851 136.691 154.004 136.691 154.081C136.615 154.387 136.615 154.692 136.615 155.075C136.615 155.228 136.615 155.381 136.615 155.457C136.615 155.763 136.538 156.069 136.538 156.375C136.538 156.528 136.538 156.604 136.538 156.757C136.538 157.216 136.538 157.598 136.538 158.057C136.538 162.568 137.456 166.85 139.138 170.673L147.167 135.959L137.15 151.175Z" fill="white"/>
<path d="M192.968 125.407C192.586 125.177 192.204 124.948 191.821 124.795C191.668 124.719 191.592 124.642 191.439 124.642C191.133 124.489 190.904 124.336 190.598 124.26C190.445 124.183 190.369 124.107 190.216 124.107C189.91 123.954 189.604 123.878 189.298 123.725C189.222 123.648 189.069 123.648 188.992 123.572C188.61 123.419 188.151 123.266 187.769 123.113C187.386 122.96 187.004 122.807 186.622 122.731L168.5 123.725L202.603 134.124C200.079 130.606 196.868 127.624 192.968 125.407Z" fill="white"/>
<path d="M170.717 150.181C171.023 150.487 171.406 150.793 171.711 151.022C172.017 151.328 172.4 151.557 172.705 151.863C172.782 151.94 172.858 152.016 172.935 152.016C173.164 152.246 173.47 152.399 173.699 152.628C173.776 152.704 173.929 152.781 174.005 152.857C174.235 153.01 174.541 153.24 174.77 153.393C174.846 153.469 174.999 153.545 175.076 153.622C175.458 153.851 175.84 154.081 176.223 154.31C180.122 156.528 184.251 157.904 188.457 158.363L162.536 134.047L170.717 150.181Z" fill="white"/>
<path d="M188.61 84.8812C184.404 85.34 180.275 86.7163 176.376 88.9338C175.993 89.1631 175.611 89.3925 175.229 89.6219C175.152 89.6984 174.999 89.7749 174.923 89.8513C174.693 90.0042 174.388 90.1572 174.158 90.3866C174.005 90.463 173.929 90.5395 173.776 90.616C173.547 90.7689 173.241 90.9983 173.011 91.1512C172.935 91.2277 172.858 91.3041 172.782 91.3041C172.476 91.5335 172.094 91.8394 171.788 92.1452C171.482 92.4511 171.176 92.6805 170.87 92.9863L162.536 109.273L188.61 84.8812Z" fill="white"/>
<path d="M208.949 90.3866L168.194 115.39V112.943L166.053 111.72L208.108 88.9338C202.985 86.0281 197.097 84.5753 191.21 84.8047L165.977 111.643L162.383 109.579L162.23 109.502L161.312 108.967L160.012 108.203L159.095 107.667L159.018 107.591L155.348 105.526L166.053 70.2002C163.224 65.0007 159.095 60.6422 153.972 57.6602L155.195 105.45L153.054 104.226L150.913 105.45L152.137 57.6602C147.09 60.6422 142.961 65.0007 140.132 70.2002L150.913 105.45L147.32 107.514L147.167 107.591L146.249 108.126L144.949 108.891L144.032 109.426L143.879 109.579L140.208 111.72L115.052 84.7283C109.164 84.4989 103.277 85.9517 98.1535 88.8573L140.132 111.72L137.991 112.943V115.39L97.2359 90.3101C97.3124 96.2743 98.9945 102.085 102.13 107.132L137.991 115.467V127.854L102.053 136.188C98.9181 141.235 97.2359 147.046 97.1594 152.934L137.915 127.93V130.377L140.055 131.6L98.1535 154.387C103.277 157.292 109.164 158.745 115.052 158.516L140.208 131.6L143.879 133.665L143.955 133.741L144.873 134.277L146.173 135.041L147.09 135.577L147.167 135.653L150.837 137.718L140.132 173.044C142.885 178.243 147.09 182.602 152.213 185.66L150.99 137.87L153.131 139.094L155.272 137.87L154.048 185.66C159.171 182.678 163.3 178.32 166.13 173.044L155.348 137.794L159.018 135.729L159.095 135.653L160.012 135.118L161.312 134.353L162.23 133.818L162.383 133.741L166.053 131.677L191.21 158.592C197.174 158.821 202.985 157.369 208.185 154.463L166.053 131.524L168.194 130.301V127.854L208.949 152.781C208.873 146.893 207.19 141.082 204.055 136.112L168.118 127.777V115.39L204.055 107.056C207.19 102.085 208.873 96.3507 208.949 90.3866Z" fill="white"/>
<path d="M168.5 119.672L186.622 120.666C186.622 120.666 186.622 120.666 186.698 120.666C187.081 120.513 187.463 120.437 187.922 120.284C188.304 120.131 188.763 119.978 189.145 119.825C189.222 119.749 189.374 119.749 189.451 119.672C189.757 119.519 190.063 119.443 190.369 119.29C190.521 119.213 190.598 119.137 190.751 119.137C191.057 118.984 191.286 118.831 191.592 118.755C191.745 118.678 191.821 118.602 191.974 118.602C192.357 118.372 192.739 118.219 193.121 117.99C197.021 115.772 200.232 112.79 202.756 109.426L168.5 119.672Z" fill="white"/>
<defs>
<linearGradient id="paint0_linear_3104_45876" x1="0" y1="0" x2="347.063" y2="139.109" gradientUnits="userSpaceOnUse">
<stop stop-color="#00C2FF"/>
<stop offset="1" stop-color="#CC00FF"/>
</linearGradient>
</defs>
</svg>
